<mxfile host="app.diagrams.net" agent="Mozilla/5.0 (Windows NT 10.0; Win64; x64) AppleWebKit/537.36 (KHTML, like Gecko) Chrome/139.0.0.0 Safari/537.36" version="28.0.9" pages="10">
  <diagram name="Use Case" id="Y1DdfzIoxIa2o3TDJ5Hf">
    <mxGraphModel grid="1" page="1" gridSize="10" guides="1" tooltips="1" connect="1" arrows="1" fold="1" pageScale="1" pageWidth="827" pageHeight="1169" math="0" shadow="0">
      <root>
        <mxCell id="0" />
        <mxCell id="1" parent="0" />
        <mxCell id="SP7oh3h0-q4WoeIWAJf2-142" value="Welcome Screen of Restaurant" style="whiteSpace=wrap;strokeWidth=2;" vertex="1" parent="1">
          <mxGeometry x="393" y="124" width="260" height="78" as="geometry" />
        </mxCell>
        <mxCell id="SP7oh3h0-q4WoeIWAJf2-143" value="Customer" style="whiteSpace=wrap;strokeWidth=2;" vertex="1" parent="1">
          <mxGeometry x="127" y="252" width="128" height="54" as="geometry" />
        </mxCell>
        <mxCell id="SP7oh3h0-q4WoeIWAJf2-144" value="Show CLI Menu&#xa;(Direct access without authorization)" style="whiteSpace=wrap;strokeWidth=2;" vertex="1" parent="1">
          <mxGeometry x="61" y="356" width="260" height="102" as="geometry" />
        </mxCell>
        <mxCell id="SP7oh3h0-q4WoeIWAJf2-145" value="Show Menu" style="whiteSpace=wrap;strokeWidth=2;" vertex="1" parent="1">
          <mxGeometry x="20" y="508" width="139" height="54" as="geometry" />
        </mxCell>
        <mxCell id="SP7oh3h0-q4WoeIWAJf2-146" value="Place an Order" style="whiteSpace=wrap;strokeWidth=2;" vertex="1" parent="1">
          <mxGeometry x="209" y="508" width="166" height="54" as="geometry" />
        </mxCell>
        <mxCell id="SP7oh3h0-q4WoeIWAJf2-147" value="Order Confirmation" style="whiteSpace=wrap;strokeWidth=2;" vertex="1" parent="1">
          <mxGeometry x="193" y="612" width="199" height="54" as="geometry" />
        </mxCell>
        <mxCell id="SP7oh3h0-q4WoeIWAJf2-148" value="Proceed to Pay the Bill" style="whiteSpace=wrap;strokeWidth=2;" vertex="1" parent="1">
          <mxGeometry x="58" y="739" width="223" height="54" as="geometry" />
        </mxCell>
        <mxCell id="SP7oh3h0-q4WoeIWAJf2-149" value="Add More Items" style="whiteSpace=wrap;strokeWidth=2;" vertex="1" parent="1">
          <mxGeometry x="330" y="739" width="171" height="54" as="geometry" />
        </mxCell>
        <mxCell id="SP7oh3h0-q4WoeIWAJf2-150" value="Admin" style="whiteSpace=wrap;strokeWidth=2;" vertex="1" parent="1">
          <mxGeometry x="903" y="252" width="105" height="54" as="geometry" />
        </mxCell>
        <mxCell id="SP7oh3h0-q4WoeIWAJf2-151" value="Authentication&#xa;(Username &amp; Password)" style="whiteSpace=wrap;strokeWidth=2;" vertex="1" parent="1">
          <mxGeometry x="841" y="368" width="229" height="78" as="geometry" />
        </mxCell>
        <mxCell id="SP7oh3h0-q4WoeIWAJf2-152" value="CLI Menu" style="whiteSpace=wrap;strokeWidth=2;" vertex="1" parent="1">
          <mxGeometry x="894" y="508" width="125" height="54" as="geometry" />
        </mxCell>
        <mxCell id="SP7oh3h0-q4WoeIWAJf2-153" value="Display Menu" style="whiteSpace=wrap;strokeWidth=2;" vertex="1" parent="1">
          <mxGeometry x="442" y="612" width="153" height="54" as="geometry" />
        </mxCell>
        <mxCell id="SP7oh3h0-q4WoeIWAJf2-154" value="Add Food Item" style="whiteSpace=wrap;strokeWidth=2;" vertex="1" parent="1">
          <mxGeometry x="645" y="612" width="164" height="54" as="geometry" />
        </mxCell>
        <mxCell id="SP7oh3h0-q4WoeIWAJf2-155" value="Remove Food Item" style="whiteSpace=wrap;strokeWidth=2;" vertex="1" parent="1">
          <mxGeometry x="859" y="612" width="193" height="54" as="geometry" />
        </mxCell>
        <mxCell id="SP7oh3h0-q4WoeIWAJf2-156" value="Update Food Item" style="whiteSpace=wrap;strokeWidth=2;" vertex="1" parent="1">
          <mxGeometry x="1102" y="612" width="189" height="54" as="geometry" />
        </mxCell>
        <mxCell id="SP7oh3h0-q4WoeIWAJf2-157" value="Exit" style="whiteSpace=wrap;strokeWidth=2;" vertex="1" parent="1">
          <mxGeometry x="1341" y="612" width="88" height="54" as="geometry" />
        </mxCell>
        <mxCell id="SP7oh3h0-q4WoeIWAJf2-159" value="" style="curved=1;startArrow=none;endArrow=block;exitX=0;exitY=0.82;entryX=0.5;entryY=-0.01;rounded=0;" edge="1" parent="1" source="SP7oh3h0-q4WoeIWAJf2-142" target="SP7oh3h0-q4WoeIWAJf2-143">
          <mxGeometry relative="1" as="geometry">
            <Array as="points">
              <mxPoint x="191" y="227" />
            </Array>
          </mxGeometry>
        </mxCell>
        <mxCell id="SP7oh3h0-q4WoeIWAJf2-160" value="" style="curved=1;startArrow=none;endArrow=block;exitX=0.5;exitY=0.99;entryX=0.5;entryY=0;rounded=0;" edge="1" parent="1" source="SP7oh3h0-q4WoeIWAJf2-143" target="SP7oh3h0-q4WoeIWAJf2-144">
          <mxGeometry relative="1" as="geometry">
            <Array as="points" />
          </mxGeometry>
        </mxCell>
        <mxCell id="SP7oh3h0-q4WoeIWAJf2-161" value="" style="curved=1;startArrow=none;endArrow=block;exitX=0.24;exitY=1;entryX=0.5;entryY=-0.01;rounded=0;" edge="1" parent="1" source="SP7oh3h0-q4WoeIWAJf2-144" target="SP7oh3h0-q4WoeIWAJf2-145">
          <mxGeometry relative="1" as="geometry">
            <Array as="points">
              <mxPoint x="90" y="483" />
            </Array>
          </mxGeometry>
        </mxCell>
        <mxCell id="SP7oh3h0-q4WoeIWAJf2-162" value="" style="curved=1;startArrow=none;endArrow=block;exitX=0.76;exitY=1;entryX=0.5;entryY=-0.01;rounded=0;" edge="1" parent="1" source="SP7oh3h0-q4WoeIWAJf2-144" target="SP7oh3h0-q4WoeIWAJf2-146">
          <mxGeometry relative="1" as="geometry">
            <Array as="points">
              <mxPoint x="292" y="483" />
            </Array>
          </mxGeometry>
        </mxCell>
        <mxCell id="SP7oh3h0-q4WoeIWAJf2-163" value="" style="curved=1;startArrow=none;endArrow=block;exitX=0.5;exitY=0.99;entryX=0.5;entryY=-0.01;rounded=0;" edge="1" parent="1" source="SP7oh3h0-q4WoeIWAJf2-146" target="SP7oh3h0-q4WoeIWAJf2-147">
          <mxGeometry relative="1" as="geometry">
            <Array as="points" />
          </mxGeometry>
        </mxCell>
        <mxCell id="SP7oh3h0-q4WoeIWAJf2-164" value="Yes" style="curved=1;startArrow=none;endArrow=block;exitX=0.24;exitY=0.99;entryX=0.5;entryY=-0.01;rounded=0;" edge="1" parent="1" source="SP7oh3h0-q4WoeIWAJf2-147" target="SP7oh3h0-q4WoeIWAJf2-148">
          <mxGeometry relative="1" as="geometry">
            <Array as="points">
              <mxPoint x="169" y="702" />
            </Array>
          </mxGeometry>
        </mxCell>
        <mxCell id="SP7oh3h0-q4WoeIWAJf2-165" value="No" style="curved=1;startArrow=none;endArrow=block;exitX=0.76;exitY=0.99;entryX=0.5;entryY=-0.01;rounded=0;" edge="1" parent="1" source="SP7oh3h0-q4WoeIWAJf2-147" target="SP7oh3h0-q4WoeIWAJf2-149">
          <mxGeometry relative="1" as="geometry">
            <Array as="points">
              <mxPoint x="416" y="702" />
            </Array>
          </mxGeometry>
        </mxCell>
        <mxCell id="SP7oh3h0-q4WoeIWAJf2-166" value="" style="curved=1;startArrow=none;endArrow=block;exitX=1;exitY=0.74;entryX=0.5;entryY=-0.01;rounded=0;" edge="1" parent="1" source="SP7oh3h0-q4WoeIWAJf2-142" target="SP7oh3h0-q4WoeIWAJf2-150">
          <mxGeometry relative="1" as="geometry">
            <Array as="points">
              <mxPoint x="956" y="227" />
            </Array>
          </mxGeometry>
        </mxCell>
        <mxCell id="SP7oh3h0-q4WoeIWAJf2-167" value="" style="curved=1;startArrow=none;endArrow=block;exitX=0.5;exitY=0.99;entryX=0.5;entryY=-0.01;rounded=0;" edge="1" parent="1" source="SP7oh3h0-q4WoeIWAJf2-150" target="SP7oh3h0-q4WoeIWAJf2-151">
          <mxGeometry relative="1" as="geometry">
            <Array as="points" />
          </mxGeometry>
        </mxCell>
        <mxCell id="SP7oh3h0-q4WoeIWAJf2-168" value="" style="curved=1;startArrow=none;endArrow=block;exitX=0.5;exitY=0.99;entryX=0.49;entryY=-0.01;rounded=0;" edge="1" parent="1" source="SP7oh3h0-q4WoeIWAJf2-151" target="SP7oh3h0-q4WoeIWAJf2-152">
          <mxGeometry relative="1" as="geometry">
            <Array as="points" />
          </mxGeometry>
        </mxCell>
        <mxCell id="SP7oh3h0-q4WoeIWAJf2-169" value="" style="curved=1;startArrow=none;endArrow=block;exitX=0;exitY=0.63;entryX=0.5;entryY=-0.01;rounded=0;" edge="1" parent="1" source="SP7oh3h0-q4WoeIWAJf2-152" target="SP7oh3h0-q4WoeIWAJf2-153">
          <mxGeometry relative="1" as="geometry">
            <Array as="points">
              <mxPoint x="519" y="587" />
            </Array>
          </mxGeometry>
        </mxCell>
        <mxCell id="SP7oh3h0-q4WoeIWAJf2-170" value="" style="curved=1;startArrow=none;endArrow=block;exitX=0;exitY=0.75;entryX=0.5;entryY=-0.01;rounded=0;" edge="1" parent="1" source="SP7oh3h0-q4WoeIWAJf2-152" target="SP7oh3h0-q4WoeIWAJf2-154">
          <mxGeometry relative="1" as="geometry">
            <Array as="points">
              <mxPoint x="727" y="587" />
            </Array>
          </mxGeometry>
        </mxCell>
        <mxCell id="SP7oh3h0-q4WoeIWAJf2-171" value="" style="curved=1;startArrow=none;endArrow=block;exitX=0.49;exitY=0.99;entryX=0.5;entryY=-0.01;rounded=0;" edge="1" parent="1" source="SP7oh3h0-q4WoeIWAJf2-152" target="SP7oh3h0-q4WoeIWAJf2-155">
          <mxGeometry relative="1" as="geometry">
            <Array as="points" />
          </mxGeometry>
        </mxCell>
        <mxCell id="SP7oh3h0-q4WoeIWAJf2-172" value="" style="curved=1;startArrow=none;endArrow=block;exitX=0.99;exitY=0.74;entryX=0.5;entryY=-0.01;rounded=0;" edge="1" parent="1" source="SP7oh3h0-q4WoeIWAJf2-152" target="SP7oh3h0-q4WoeIWAJf2-156">
          <mxGeometry relative="1" as="geometry">
            <Array as="points">
              <mxPoint x="1197" y="587" />
            </Array>
          </mxGeometry>
        </mxCell>
        <mxCell id="SP7oh3h0-q4WoeIWAJf2-173" value="" style="curved=1;startArrow=none;endArrow=block;exitX=0.99;exitY=0.63;entryX=0.5;entryY=-0.01;rounded=0;" edge="1" parent="1" source="SP7oh3h0-q4WoeIWAJf2-152" target="SP7oh3h0-q4WoeIWAJf2-157">
          <mxGeometry relative="1" as="geometry">
            <Array as="points">
              <mxPoint x="1385" y="587" />
            </Array>
          </mxGeometry>
        </mxCell>
        <mxCell id="SP7oh3h0-q4WoeIWAJf2-175" style="edgeStyle=orthogonalEdgeStyle;rounded=0;orthogonalLoop=1;jettySize=auto;html=1;exitX=0;exitY=0.3333333333333333;exitDx=0;exitDy=0;exitPerimeter=0;" edge="1" parent="1" source="SP7oh3h0-q4WoeIWAJf2-174">
          <mxGeometry relative="1" as="geometry">
            <mxPoint x="549.5263157894738" y="40.1052631578948" as="targetPoint" />
          </mxGeometry>
        </mxCell>
        <mxCell id="SP7oh3h0-q4WoeIWAJf2-176" style="edgeStyle=orthogonalEdgeStyle;rounded=0;orthogonalLoop=1;jettySize=auto;html=1;exitX=0;exitY=0.3333333333333333;exitDx=0;exitDy=0;exitPerimeter=0;entryX=0.5;entryY=0;entryDx=0;entryDy=0;" edge="1" parent="1" source="SP7oh3h0-q4WoeIWAJf2-174" target="SP7oh3h0-q4WoeIWAJf2-142">
          <mxGeometry relative="1" as="geometry" />
        </mxCell>
        <mxCell id="SP7oh3h0-q4WoeIWAJf2-174" value="Actor" style="shape=umlActor;verticalLabelPosition=bottom;verticalAlign=top;html=1;outlineConnect=0;" vertex="1" parent="1">
          <mxGeometry x="550" y="20" width="30" height="60" as="geometry" />
        </mxCell>
      </root>
    </mxGraphModel>
  </diagram>
  <diagram id="8ozpBpsWG10W750vPio6" name="Class">
    <mxGraphModel grid="1" page="1" gridSize="10" guides="1" tooltips="1" connect="1" arrows="1" fold="1" pageScale="1" pageWidth="827" pageHeight="1169" math="0" shadow="0">
      <root>
        <mxCell id="0" />
        <mxCell id="1" parent="0" />
        <mxCell id="pGt4PrwZ_UuRez9cTg3z-58" value="Menu" style="swimlane;fontStyle=1;align=center;verticalAlign=top;childLayout=stackLayout;horizontal=1;startSize=28.923076923076923;horizontalStack=0;resizeParent=1;resizeParentMax=0;resizeLast=0;collapsible=0;marginBottom=0;" vertex="1" parent="1">
          <mxGeometry x="352" y="1664" width="475" height="384.9230769230769" as="geometry" />
        </mxCell>
        <mxCell id="pGt4PrwZ_UuRez9cTg3z-59" value="- items : TreeMap&lt;Integer,MenuItem&gt;" style="text;strokeColor=none;fillColor=none;align=left;verticalAlign=top;spacingLeft=4;spacingRight=4;overflow=hidden;rotatable=0;points=[[0,0.5],[1,0.5]];portConstraint=eastwest;" vertex="1" parent="pGt4PrwZ_UuRez9cTg3z-58">
          <mxGeometry y="28.923076923076923" width="475" height="29" as="geometry" />
        </mxCell>
        <mxCell id="pGt4PrwZ_UuRez9cTg3z-60" value="- menuFilePath : String" style="text;strokeColor=none;fillColor=none;align=left;verticalAlign=top;spacingLeft=4;spacingRight=4;overflow=hidden;rotatable=0;points=[[0,0.5],[1,0.5]];portConstraint=eastwest;" vertex="1" parent="pGt4PrwZ_UuRez9cTg3z-58">
          <mxGeometry y="57.92307692307692" width="475" height="29" as="geometry" />
        </mxCell>
        <mxCell id="pGt4PrwZ_UuRez9cTg3z-61" style="line;strokeWidth=1;fillColor=none;align=left;verticalAlign=middle;spacingTop=-1;spacingLeft=3;spacingRight=3;rotatable=0;labelPosition=right;points=[];portConstraint=eastwest;strokeColor=inherit;" vertex="1" parent="pGt4PrwZ_UuRez9cTg3z-58">
          <mxGeometry y="86.92307692307692" width="475" height="8" as="geometry" />
        </mxCell>
        <mxCell id="pGt4PrwZ_UuRez9cTg3z-62" value="+ Menu()" style="text;strokeColor=none;fillColor=none;align=left;verticalAlign=top;spacingLeft=4;spacingRight=4;overflow=hidden;rotatable=0;points=[[0,0.5],[1,0.5]];portConstraint=eastwest;" vertex="1" parent="pGt4PrwZ_UuRez9cTg3z-58">
          <mxGeometry y="94.92307692307692" width="475" height="29" as="geometry" />
        </mxCell>
        <mxCell id="pGt4PrwZ_UuRez9cTg3z-63" value="+ loadMenu(filePath : String) : : void" style="text;strokeColor=none;fillColor=none;align=left;verticalAlign=top;spacingLeft=4;spacingRight=4;overflow=hidden;rotatable=0;points=[[0,0.5],[1,0.5]];portConstraint=eastwest;" vertex="1" parent="pGt4PrwZ_UuRez9cTg3z-58">
          <mxGeometry y="123.92307692307692" width="475" height="29" as="geometry" />
        </mxCell>
        <mxCell id="pGt4PrwZ_UuRez9cTg3z-64" value="+ mergeMenuFromFile(filePath : String) : : void" style="text;strokeColor=none;fillColor=none;align=left;verticalAlign=top;spacingLeft=4;spacingRight=4;overflow=hidden;rotatable=0;points=[[0,0.5],[1,0.5]];portConstraint=eastwest;" vertex="1" parent="pGt4PrwZ_UuRez9cTg3z-58">
          <mxGeometry y="152.9230769230769" width="475" height="29" as="geometry" />
        </mxCell>
        <mxCell id="pGt4PrwZ_UuRez9cTg3z-65" value="+ saveMenu() : : void" style="text;strokeColor=none;fillColor=none;align=left;verticalAlign=top;spacingLeft=4;spacingRight=4;overflow=hidden;rotatable=0;points=[[0,0.5],[1,0.5]];portConstraint=eastwest;" vertex="1" parent="pGt4PrwZ_UuRez9cTg3z-58">
          <mxGeometry y="181.9230769230769" width="475" height="29" as="geometry" />
        </mxCell>
        <mxCell id="pGt4PrwZ_UuRez9cTg3z-66" value="+ addItem(id : int, name : String, price : double) : : void" style="text;strokeColor=none;fillColor=none;align=left;verticalAlign=top;spacingLeft=4;spacingRight=4;overflow=hidden;rotatable=0;points=[[0,0.5],[1,0.5]];portConstraint=eastwest;" vertex="1" parent="pGt4PrwZ_UuRez9cTg3z-58">
          <mxGeometry y="210.9230769230769" width="475" height="29" as="geometry" />
        </mxCell>
        <mxCell id="pGt4PrwZ_UuRez9cTg3z-67" value="+ updateItem(id : int, name : String, price : double) : : void" style="text;strokeColor=none;fillColor=none;align=left;verticalAlign=top;spacingLeft=4;spacingRight=4;overflow=hidden;rotatable=0;points=[[0,0.5],[1,0.5]];portConstraint=eastwest;" vertex="1" parent="pGt4PrwZ_UuRez9cTg3z-58">
          <mxGeometry y="239.9230769230769" width="475" height="29" as="geometry" />
        </mxCell>
        <mxCell id="pGt4PrwZ_UuRez9cTg3z-68" value="+ deleteItem(id : int) : : void" style="text;strokeColor=none;fillColor=none;align=left;verticalAlign=top;spacingLeft=4;spacingRight=4;overflow=hidden;rotatable=0;points=[[0,0.5],[1,0.5]];portConstraint=eastwest;" vertex="1" parent="pGt4PrwZ_UuRez9cTg3z-58">
          <mxGeometry y="268.9230769230769" width="475" height="29" as="geometry" />
        </mxCell>
        <mxCell id="pGt4PrwZ_UuRez9cTg3z-69" value="+ getItem(id : int) : : MenuItem" style="text;strokeColor=none;fillColor=none;align=left;verticalAlign=top;spacingLeft=4;spacingRight=4;overflow=hidden;rotatable=0;points=[[0,0.5],[1,0.5]];portConstraint=eastwest;" vertex="1" parent="pGt4PrwZ_UuRez9cTg3z-58">
          <mxGeometry y="297.9230769230769" width="475" height="29" as="geometry" />
        </mxCell>
        <mxCell id="pGt4PrwZ_UuRez9cTg3z-70" value="+ getAllItems() : : List&lt;MenuItem&gt;" style="text;strokeColor=none;fillColor=none;align=left;verticalAlign=top;spacingLeft=4;spacingRight=4;overflow=hidden;rotatable=0;points=[[0,0.5],[1,0.5]];portConstraint=eastwest;" vertex="1" parent="pGt4PrwZ_UuRez9cTg3z-58">
          <mxGeometry y="326.9230769230769" width="475" height="29" as="geometry" />
        </mxCell>
        <mxCell id="pGt4PrwZ_UuRez9cTg3z-71" value="+ displayMenu() : : void" style="text;strokeColor=none;fillColor=none;align=left;verticalAlign=top;spacingLeft=4;spacingRight=4;overflow=hidden;rotatable=0;points=[[0,0.5],[1,0.5]];portConstraint=eastwest;" vertex="1" parent="pGt4PrwZ_UuRez9cTg3z-58">
          <mxGeometry y="355.9230769230769" width="475" height="29" as="geometry" />
        </mxCell>
        <mxCell id="pGt4PrwZ_UuRez9cTg3z-72" value="MenuItem" style="swimlane;fontStyle=1;align=center;verticalAlign=top;childLayout=stackLayout;horizontal=1;startSize=34.666666666666664;horizontalStack=0;resizeParent=1;resizeParentMax=0;resizeLast=0;collapsible=0;marginBottom=0;" vertex="1" parent="1">
          <mxGeometry x="818" y="2121" width="423" height="217.66666666666666" as="geometry" />
        </mxCell>
        <mxCell id="pGt4PrwZ_UuRez9cTg3z-73" value="+ id : int" style="text;strokeColor=none;fillColor=none;align=left;verticalAlign=top;spacingLeft=4;spacingRight=4;overflow=hidden;rotatable=0;points=[[0,0.5],[1,0.5]];portConstraint=eastwest;" vertex="1" parent="pGt4PrwZ_UuRez9cTg3z-72">
          <mxGeometry y="34.666666666666664" width="423" height="35" as="geometry" />
        </mxCell>
        <mxCell id="pGt4PrwZ_UuRez9cTg3z-74" value="+ name : String" style="text;strokeColor=none;fillColor=none;align=left;verticalAlign=top;spacingLeft=4;spacingRight=4;overflow=hidden;rotatable=0;points=[[0,0.5],[1,0.5]];portConstraint=eastwest;" vertex="1" parent="pGt4PrwZ_UuRez9cTg3z-72">
          <mxGeometry y="69.66666666666666" width="423" height="35" as="geometry" />
        </mxCell>
        <mxCell id="pGt4PrwZ_UuRez9cTg3z-75" value="+ price : double" style="text;strokeColor=none;fillColor=none;align=left;verticalAlign=top;spacingLeft=4;spacingRight=4;overflow=hidden;rotatable=0;points=[[0,0.5],[1,0.5]];portConstraint=eastwest;" vertex="1" parent="pGt4PrwZ_UuRez9cTg3z-72">
          <mxGeometry y="104.66666666666666" width="423" height="35" as="geometry" />
        </mxCell>
        <mxCell id="pGt4PrwZ_UuRez9cTg3z-76" style="line;strokeWidth=1;fillColor=none;align=left;verticalAlign=middle;spacingTop=-1;spacingLeft=3;spacingRight=3;rotatable=0;labelPosition=right;points=[];portConstraint=eastwest;strokeColor=inherit;" vertex="1" parent="pGt4PrwZ_UuRez9cTg3z-72">
          <mxGeometry y="139.66666666666666" width="423" height="8" as="geometry" />
        </mxCell>
        <mxCell id="pGt4PrwZ_UuRez9cTg3z-77" value="+ MenuItem(id : int, name : String, price : double)" style="text;strokeColor=none;fillColor=none;align=left;verticalAlign=top;spacingLeft=4;spacingRight=4;overflow=hidden;rotatable=0;points=[[0,0.5],[1,0.5]];portConstraint=eastwest;" vertex="1" parent="pGt4PrwZ_UuRez9cTg3z-72">
          <mxGeometry y="147.66666666666666" width="423" height="35" as="geometry" />
        </mxCell>
        <mxCell id="pGt4PrwZ_UuRez9cTg3z-78" value="+ toString() : : String" style="text;strokeColor=none;fillColor=none;align=left;verticalAlign=top;spacingLeft=4;spacingRight=4;overflow=hidden;rotatable=0;points=[[0,0.5],[1,0.5]];portConstraint=eastwest;" vertex="1" parent="pGt4PrwZ_UuRez9cTg3z-72">
          <mxGeometry y="182.66666666666666" width="423" height="35" as="geometry" />
        </mxCell>
        <mxCell id="pGt4PrwZ_UuRez9cTg3z-79" value="User" style="swimlane;fontStyle=1;align=center;verticalAlign=top;childLayout=stackLayout;horizontal=1;startSize=36.8;horizontalStack=0;resizeParent=1;resizeParentMax=0;resizeLast=0;collapsible=0;marginBottom=0;" vertex="1" parent="1">
          <mxGeometry x="916" y="20" width="228" height="192.8" as="geometry" />
        </mxCell>
        <mxCell id="pGt4PrwZ_UuRez9cTg3z-80" value="+ username : String" style="text;strokeColor=none;fillColor=none;align=left;verticalAlign=top;spacingLeft=4;spacingRight=4;overflow=hidden;rotatable=0;points=[[0,0.5],[1,0.5]];portConstraint=eastwest;" vertex="1" parent="pGt4PrwZ_UuRez9cTg3z-79">
          <mxGeometry y="36.8" width="228" height="37" as="geometry" />
        </mxCell>
        <mxCell id="pGt4PrwZ_UuRez9cTg3z-81" value="+ role : String" style="text;strokeColor=none;fillColor=none;align=left;verticalAlign=top;spacingLeft=4;spacingRight=4;overflow=hidden;rotatable=0;points=[[0,0.5],[1,0.5]];portConstraint=eastwest;" vertex="1" parent="pGt4PrwZ_UuRez9cTg3z-79">
          <mxGeometry y="73.8" width="228" height="37" as="geometry" />
        </mxCell>
        <mxCell id="pGt4PrwZ_UuRez9cTg3z-82" style="line;strokeWidth=1;fillColor=none;align=left;verticalAlign=middle;spacingTop=-1;spacingLeft=3;spacingRight=3;rotatable=0;labelPosition=right;points=[];portConstraint=eastwest;strokeColor=inherit;" vertex="1" parent="pGt4PrwZ_UuRez9cTg3z-79">
          <mxGeometry y="110.8" width="228" height="8" as="geometry" />
        </mxCell>
        <mxCell id="pGt4PrwZ_UuRez9cTg3z-83" value="+ getUsername() : : String" style="text;strokeColor=none;fillColor=none;align=left;verticalAlign=top;spacingLeft=4;spacingRight=4;overflow=hidden;rotatable=0;points=[[0,0.5],[1,0.5]];portConstraint=eastwest;" vertex="1" parent="pGt4PrwZ_UuRez9cTg3z-79">
          <mxGeometry y="118.8" width="228" height="37" as="geometry" />
        </mxCell>
        <mxCell id="pGt4PrwZ_UuRez9cTg3z-84" value="+ getRole() : : String" style="text;strokeColor=none;fillColor=none;align=left;verticalAlign=top;spacingLeft=4;spacingRight=4;overflow=hidden;rotatable=0;points=[[0,0.5],[1,0.5]];portConstraint=eastwest;" vertex="1" parent="pGt4PrwZ_UuRez9cTg3z-79">
          <mxGeometry y="155.8" width="228" height="37" as="geometry" />
        </mxCell>
        <mxCell id="pGt4PrwZ_UuRez9cTg3z-85" value="Admin" style="swimlane;fontStyle=1;align=center;verticalAlign=top;childLayout=stackLayout;horizontal=1;startSize=31.733333333333334;horizontalStack=0;resizeParent=1;resizeParentMax=0;resizeLast=0;collapsible=0;marginBottom=0;" vertex="1" parent="1">
          <mxGeometry x="280" y="1345" width="619" height="231.73333333333335" as="geometry" />
        </mxCell>
        <mxCell id="pGt4PrwZ_UuRez9cTg3z-86" style="line;strokeWidth=1;fillColor=none;align=left;verticalAlign=middle;spacingTop=-1;spacingLeft=3;spacingRight=3;rotatable=0;labelPosition=right;points=[];portConstraint=eastwest;strokeColor=inherit;" vertex="1" parent="pGt4PrwZ_UuRez9cTg3z-85">
          <mxGeometry y="31.733333333333334" width="619" height="8" as="geometry" />
        </mxCell>
        <mxCell id="pGt4PrwZ_UuRez9cTg3z-87" value="+ login(username : String, password : String) : : boolean" style="text;strokeColor=none;fillColor=none;align=left;verticalAlign=top;spacingLeft=4;spacingRight=4;overflow=hidden;rotatable=0;points=[[0,0.5],[1,0.5]];portConstraint=eastwest;" vertex="1" parent="pGt4PrwZ_UuRez9cTg3z-85">
          <mxGeometry y="39.733333333333334" width="619" height="32" as="geometry" />
        </mxCell>
        <mxCell id="pGt4PrwZ_UuRez9cTg3z-88" value="+ addMenuItem(menu : Menu, id : int, name : String, price : double) : : void" style="text;strokeColor=none;fillColor=none;align=left;verticalAlign=top;spacingLeft=4;spacingRight=4;overflow=hidden;rotatable=0;points=[[0,0.5],[1,0.5]];portConstraint=eastwest;" vertex="1" parent="pGt4PrwZ_UuRez9cTg3z-85">
          <mxGeometry y="71.73333333333333" width="619" height="32" as="geometry" />
        </mxCell>
        <mxCell id="pGt4PrwZ_UuRez9cTg3z-89" value="+ updateMenuItem(menu : Menu, id : int, name : String, price : double) : : void" style="text;strokeColor=none;fillColor=none;align=left;verticalAlign=top;spacingLeft=4;spacingRight=4;overflow=hidden;rotatable=0;points=[[0,0.5],[1,0.5]];portConstraint=eastwest;" vertex="1" parent="pGt4PrwZ_UuRez9cTg3z-85">
          <mxGeometry y="103.73333333333333" width="619" height="32" as="geometry" />
        </mxCell>
        <mxCell id="pGt4PrwZ_UuRez9cTg3z-90" value="+ deleteMenuItem(menu : Menu, id : int) : : void" style="text;strokeColor=none;fillColor=none;align=left;verticalAlign=top;spacingLeft=4;spacingRight=4;overflow=hidden;rotatable=0;points=[[0,0.5],[1,0.5]];portConstraint=eastwest;" vertex="1" parent="pGt4PrwZ_UuRez9cTg3z-85">
          <mxGeometry y="135.73333333333335" width="619" height="32" as="geometry" />
        </mxCell>
        <mxCell id="pGt4PrwZ_UuRez9cTg3z-91" value="+ loadMenu(menu : Menu, path : String) : : void" style="text;strokeColor=none;fillColor=none;align=left;verticalAlign=top;spacingLeft=4;spacingRight=4;overflow=hidden;rotatable=0;points=[[0,0.5],[1,0.5]];portConstraint=eastwest;" vertex="1" parent="pGt4PrwZ_UuRez9cTg3z-85">
          <mxGeometry y="167.73333333333335" width="619" height="32" as="geometry" />
        </mxCell>
        <mxCell id="pGt4PrwZ_UuRez9cTg3z-92" value="+ saveAndExit(menu : Menu) : : void" style="text;strokeColor=none;fillColor=none;align=left;verticalAlign=top;spacingLeft=4;spacingRight=4;overflow=hidden;rotatable=0;points=[[0,0.5],[1,0.5]];portConstraint=eastwest;" vertex="1" parent="pGt4PrwZ_UuRez9cTg3z-85">
          <mxGeometry y="199.73333333333335" width="619" height="32" as="geometry" />
        </mxCell>
        <mxCell id="pGt4PrwZ_UuRez9cTg3z-93" value="Customer" style="swimlane;fontStyle=1;align=center;verticalAlign=top;childLayout=stackLayout;horizontal=1;startSize=30.4;horizontalStack=0;resizeParent=1;resizeParentMax=0;resizeLast=0;collapsible=0;marginBottom=0;" vertex="1" parent="1">
          <mxGeometry x="1017" y="262" width="600" height="308.4" as="geometry" />
        </mxCell>
        <mxCell id="pGt4PrwZ_UuRez9cTg3z-94" value="- cart : HashMap&lt;Integer,Integer&gt;   %% itemId -&gt; qty" style="text;strokeColor=none;fillColor=none;align=left;verticalAlign=top;spacingLeft=4;spacingRight=4;overflow=hidden;rotatable=0;points=[[0,0.5],[1,0.5]];portConstraint=eastwest;" vertex="1" parent="pGt4PrwZ_UuRez9cTg3z-93">
          <mxGeometry y="30.4" width="600" height="30" as="geometry" />
        </mxCell>
        <mxCell id="pGt4PrwZ_UuRez9cTg3z-95" value="- appliedCoupon : String" style="text;strokeColor=none;fillColor=none;align=left;verticalAlign=top;spacingLeft=4;spacingRight=4;overflow=hidden;rotatable=0;points=[[0,0.5],[1,0.5]];portConstraint=eastwest;" vertex="1" parent="pGt4PrwZ_UuRez9cTg3z-93">
          <mxGeometry y="60.4" width="600" height="30" as="geometry" />
        </mxCell>
        <mxCell id="pGt4PrwZ_UuRez9cTg3z-96" style="line;strokeWidth=1;fillColor=none;align=left;verticalAlign=middle;spacingTop=-1;spacingLeft=3;spacingRight=3;rotatable=0;labelPosition=right;points=[];portConstraint=eastwest;strokeColor=inherit;" vertex="1" parent="pGt4PrwZ_UuRez9cTg3z-93">
          <mxGeometry y="90.4" width="600" height="8" as="geometry" />
        </mxCell>
        <mxCell id="pGt4PrwZ_UuRez9cTg3z-97" value="+ viewMenu(menu : Menu) : : void" style="text;strokeColor=none;fillColor=none;align=left;verticalAlign=top;spacingLeft=4;spacingRight=4;overflow=hidden;rotatable=0;points=[[0,0.5],[1,0.5]];portConstraint=eastwest;" vertex="1" parent="pGt4PrwZ_UuRez9cTg3z-93">
          <mxGeometry y="98.4" width="600" height="30" as="geometry" />
        </mxCell>
        <mxCell id="pGt4PrwZ_UuRez9cTg3z-98" value="+ placeOrder(menu : Menu, itemId : int, qty : int) : : void" style="text;strokeColor=none;fillColor=none;align=left;verticalAlign=top;spacingLeft=4;spacingRight=4;overflow=hidden;rotatable=0;points=[[0,0.5],[1,0.5]];portConstraint=eastwest;" vertex="1" parent="pGt4PrwZ_UuRez9cTg3z-93">
          <mxGeometry y="128.4" width="600" height="30" as="geometry" />
        </mxCell>
        <mxCell id="pGt4PrwZ_UuRez9cTg3z-99" value="+ removeFromCart(itemId : int) : : void" style="text;strokeColor=none;fillColor=none;align=left;verticalAlign=top;spacingLeft=4;spacingRight=4;overflow=hidden;rotatable=0;points=[[0,0.5],[1,0.5]];portConstraint=eastwest;" vertex="1" parent="pGt4PrwZ_UuRez9cTg3z-93">
          <mxGeometry y="158.4" width="600" height="30" as="geometry" />
        </mxCell>
        <mxCell id="pGt4PrwZ_UuRez9cTg3z-100" value="+ updateQuantity(itemId : int, qty : int) : : void" style="text;strokeColor=none;fillColor=none;align=left;verticalAlign=top;spacingLeft=4;spacingRight=4;overflow=hidden;rotatable=0;points=[[0,0.5],[1,0.5]];portConstraint=eastwest;" vertex="1" parent="pGt4PrwZ_UuRez9cTg3z-93">
          <mxGeometry y="188.4" width="600" height="30" as="geometry" />
        </mxCell>
        <mxCell id="pGt4PrwZ_UuRez9cTg3z-101" value="+ viewCart(menu : Menu) : : void" style="text;strokeColor=none;fillColor=none;align=left;verticalAlign=top;spacingLeft=4;spacingRight=4;overflow=hidden;rotatable=0;points=[[0,0.5],[1,0.5]];portConstraint=eastwest;" vertex="1" parent="pGt4PrwZ_UuRez9cTg3z-93">
          <mxGeometry y="218.4" width="600" height="30" as="geometry" />
        </mxCell>
        <mxCell id="pGt4PrwZ_UuRez9cTg3z-102" value="+ applyCoupon(code : String, cm : CouponManager) : : boolean" style="text;strokeColor=none;fillColor=none;align=left;verticalAlign=top;spacingLeft=4;spacingRight=4;overflow=hidden;rotatable=0;points=[[0,0.5],[1,0.5]];portConstraint=eastwest;" vertex="1" parent="pGt4PrwZ_UuRez9cTg3z-93">
          <mxGeometry y="248.4" width="600" height="30" as="geometry" />
        </mxCell>
        <mxCell id="pGt4PrwZ_UuRez9cTg3z-103" value="+ checkout(cm : CouponManager, bm : BillingManager, menu : Menu) : : Bill" style="text;strokeColor=none;fillColor=none;align=left;verticalAlign=top;spacingLeft=4;spacingRight=4;overflow=hidden;rotatable=0;points=[[0,0.5],[1,0.5]];portConstraint=eastwest;" vertex="1" parent="pGt4PrwZ_UuRez9cTg3z-93">
          <mxGeometry y="278.4" width="600" height="30" as="geometry" />
        </mxCell>
        <mxCell id="pGt4PrwZ_UuRez9cTg3z-104" value="Order" style="swimlane;fontStyle=1;align=center;verticalAlign=top;childLayout=stackLayout;horizontal=1;startSize=33.142857142857146;horizontalStack=0;resizeParent=1;resizeParentMax=0;resizeLast=0;collapsible=0;marginBottom=0;" vertex="1" parent="1">
          <mxGeometry x="1102" y="1348" width="429" height="239.14285714285714" as="geometry" />
        </mxCell>
        <mxCell id="pGt4PrwZ_UuRez9cTg3z-105" value="- items : List&lt;OrderItem&gt;" style="text;strokeColor=none;fillColor=none;align=left;verticalAlign=top;spacingLeft=4;spacingRight=4;overflow=hidden;rotatable=0;points=[[0,0.5],[1,0.5]];portConstraint=eastwest;" vertex="1" parent="pGt4PrwZ_UuRez9cTg3z-104">
          <mxGeometry y="33.142857142857146" width="429" height="33" as="geometry" />
        </mxCell>
        <mxCell id="pGt4PrwZ_UuRez9cTg3z-106" style="line;strokeWidth=1;fillColor=none;align=left;verticalAlign=middle;spacingTop=-1;spacingLeft=3;spacingRight=3;rotatable=0;labelPosition=right;points=[];portConstraint=eastwest;strokeColor=inherit;" vertex="1" parent="pGt4PrwZ_UuRez9cTg3z-104">
          <mxGeometry y="66.14285714285714" width="429" height="8" as="geometry" />
        </mxCell>
        <mxCell id="pGt4PrwZ_UuRez9cTg3z-107" value="+ addItem(mi : MenuItem, qty : int) : : void" style="text;strokeColor=none;fillColor=none;align=left;verticalAlign=top;spacingLeft=4;spacingRight=4;overflow=hidden;rotatable=0;points=[[0,0.5],[1,0.5]];portConstraint=eastwest;" vertex="1" parent="pGt4PrwZ_UuRez9cTg3z-104">
          <mxGeometry y="74.14285714285714" width="429" height="33" as="geometry" />
        </mxCell>
        <mxCell id="pGt4PrwZ_UuRez9cTg3z-108" value="+ removeItem(menuItemId : int) : : void" style="text;strokeColor=none;fillColor=none;align=left;verticalAlign=top;spacingLeft=4;spacingRight=4;overflow=hidden;rotatable=0;points=[[0,0.5],[1,0.5]];portConstraint=eastwest;" vertex="1" parent="pGt4PrwZ_UuRez9cTg3z-104">
          <mxGeometry y="107.14285714285714" width="429" height="33" as="geometry" />
        </mxCell>
        <mxCell id="pGt4PrwZ_UuRez9cTg3z-109" value="+ updateQuantity(menuItemId : int, qty : int) : : void" style="text;strokeColor=none;fillColor=none;align=left;verticalAlign=top;spacingLeft=4;spacingRight=4;overflow=hidden;rotatable=0;points=[[0,0.5],[1,0.5]];portConstraint=eastwest;" vertex="1" parent="pGt4PrwZ_UuRez9cTg3z-104">
          <mxGeometry y="140.14285714285714" width="429" height="33" as="geometry" />
        </mxCell>
        <mxCell id="pGt4PrwZ_UuRez9cTg3z-110" value="+ getSubtotal() : : double" style="text;strokeColor=none;fillColor=none;align=left;verticalAlign=top;spacingLeft=4;spacingRight=4;overflow=hidden;rotatable=0;points=[[0,0.5],[1,0.5]];portConstraint=eastwest;" vertex="1" parent="pGt4PrwZ_UuRez9cTg3z-104">
          <mxGeometry y="173.14285714285714" width="429" height="33" as="geometry" />
        </mxCell>
        <mxCell id="pGt4PrwZ_UuRez9cTg3z-111" value="+ getItems() : : List&lt;OrderItem&gt;" style="text;strokeColor=none;fillColor=none;align=left;verticalAlign=top;spacingLeft=4;spacingRight=4;overflow=hidden;rotatable=0;points=[[0,0.5],[1,0.5]];portConstraint=eastwest;" vertex="1" parent="pGt4PrwZ_UuRez9cTg3z-104">
          <mxGeometry y="206.14285714285714" width="429" height="33" as="geometry" />
        </mxCell>
        <mxCell id="pGt4PrwZ_UuRez9cTg3z-112" value="OrderItem" style="swimlane;fontStyle=1;align=center;verticalAlign=top;childLayout=stackLayout;horizontal=1;startSize=36.8;horizontalStack=0;resizeParent=1;resizeParentMax=0;resizeLast=0;collapsible=0;marginBottom=0;" vertex="1" parent="1">
          <mxGeometry x="1104" y="1760" width="425" height="192.8" as="geometry" />
        </mxCell>
        <mxCell id="pGt4PrwZ_UuRez9cTg3z-113" value="+ menuItem : MenuItem" style="text;strokeColor=none;fillColor=none;align=left;verticalAlign=top;spacingLeft=4;spacingRight=4;overflow=hidden;rotatable=0;points=[[0,0.5],[1,0.5]];portConstraint=eastwest;" vertex="1" parent="pGt4PrwZ_UuRez9cTg3z-112">
          <mxGeometry y="36.8" width="425" height="37" as="geometry" />
        </mxCell>
        <mxCell id="pGt4PrwZ_UuRez9cTg3z-114" value="+ quantity : int" style="text;strokeColor=none;fillColor=none;align=left;verticalAlign=top;spacingLeft=4;spacingRight=4;overflow=hidden;rotatable=0;points=[[0,0.5],[1,0.5]];portConstraint=eastwest;" vertex="1" parent="pGt4PrwZ_UuRez9cTg3z-112">
          <mxGeometry y="73.8" width="425" height="37" as="geometry" />
        </mxCell>
        <mxCell id="pGt4PrwZ_UuRez9cTg3z-115" style="line;strokeWidth=1;fillColor=none;align=left;verticalAlign=middle;spacingTop=-1;spacingLeft=3;spacingRight=3;rotatable=0;labelPosition=right;points=[];portConstraint=eastwest;strokeColor=inherit;" vertex="1" parent="pGt4PrwZ_UuRez9cTg3z-112">
          <mxGeometry y="110.8" width="425" height="8" as="geometry" />
        </mxCell>
        <mxCell id="pGt4PrwZ_UuRez9cTg3z-116" value="+ OrderItem(menuItem : MenuItem, quantity : int)" style="text;strokeColor=none;fillColor=none;align=left;verticalAlign=top;spacingLeft=4;spacingRight=4;overflow=hidden;rotatable=0;points=[[0,0.5],[1,0.5]];portConstraint=eastwest;" vertex="1" parent="pGt4PrwZ_UuRez9cTg3z-112">
          <mxGeometry y="118.8" width="425" height="37" as="geometry" />
        </mxCell>
        <mxCell id="pGt4PrwZ_UuRez9cTg3z-117" value="+ getLineTotal() : : double" style="text;strokeColor=none;fillColor=none;align=left;verticalAlign=top;spacingLeft=4;spacingRight=4;overflow=hidden;rotatable=0;points=[[0,0.5],[1,0.5]];portConstraint=eastwest;" vertex="1" parent="pGt4PrwZ_UuRez9cTg3z-112">
          <mxGeometry y="155.8" width="425" height="37" as="geometry" />
        </mxCell>
        <mxCell id="pGt4PrwZ_UuRez9cTg3z-118" value="Bill" style="swimlane;fontStyle=1;align=center;verticalAlign=top;childLayout=stackLayout;horizontal=1;startSize=30.4;horizontalStack=0;resizeParent=1;resizeParentMax=0;resizeLast=0;collapsible=0;marginBottom=0;" vertex="1" parent="1">
          <mxGeometry x="1178" y="960" width="623" height="308.4" as="geometry" />
        </mxCell>
        <mxCell id="pGt4PrwZ_UuRez9cTg3z-119" value="+ billId : int" style="text;strokeColor=none;fillColor=none;align=left;verticalAlign=top;spacingLeft=4;spacingRight=4;overflow=hidden;rotatable=0;points=[[0,0.5],[1,0.5]];portConstraint=eastwest;" vertex="1" parent="pGt4PrwZ_UuRez9cTg3z-118">
          <mxGeometry y="30.4" width="623" height="30" as="geometry" />
        </mxCell>
        <mxCell id="pGt4PrwZ_UuRez9cTg3z-120" value="+ order : Order" style="text;strokeColor=none;fillColor=none;align=left;verticalAlign=top;spacingLeft=4;spacingRight=4;overflow=hidden;rotatable=0;points=[[0,0.5],[1,0.5]];portConstraint=eastwest;" vertex="1" parent="pGt4PrwZ_UuRez9cTg3z-118">
          <mxGeometry y="60.4" width="623" height="30" as="geometry" />
        </mxCell>
        <mxCell id="pGt4PrwZ_UuRez9cTg3z-121" value="+ subtotal : double" style="text;strokeColor=none;fillColor=none;align=left;verticalAlign=top;spacingLeft=4;spacingRight=4;overflow=hidden;rotatable=0;points=[[0,0.5],[1,0.5]];portConstraint=eastwest;" vertex="1" parent="pGt4PrwZ_UuRez9cTg3z-118">
          <mxGeometry y="90.4" width="623" height="30" as="geometry" />
        </mxCell>
        <mxCell id="pGt4PrwZ_UuRez9cTg3z-122" value="+ discountPercent : double" style="text;strokeColor=none;fillColor=none;align=left;verticalAlign=top;spacingLeft=4;spacingRight=4;overflow=hidden;rotatable=0;points=[[0,0.5],[1,0.5]];portConstraint=eastwest;" vertex="1" parent="pGt4PrwZ_UuRez9cTg3z-118">
          <mxGeometry y="120.4" width="623" height="30" as="geometry" />
        </mxCell>
        <mxCell id="pGt4PrwZ_UuRez9cTg3z-123" value="+ discountAmount : double" style="text;strokeColor=none;fillColor=none;align=left;verticalAlign=top;spacingLeft=4;spacingRight=4;overflow=hidden;rotatable=0;points=[[0,0.5],[1,0.5]];portConstraint=eastwest;" vertex="1" parent="pGt4PrwZ_UuRez9cTg3z-118">
          <mxGeometry y="150.4" width="623" height="30" as="geometry" />
        </mxCell>
        <mxCell id="pGt4PrwZ_UuRez9cTg3z-124" value="+ finalTotal : double" style="text;strokeColor=none;fillColor=none;align=left;verticalAlign=top;spacingLeft=4;spacingRight=4;overflow=hidden;rotatable=0;points=[[0,0.5],[1,0.5]];portConstraint=eastwest;" vertex="1" parent="pGt4PrwZ_UuRez9cTg3z-118">
          <mxGeometry y="180.4" width="623" height="30" as="geometry" />
        </mxCell>
        <mxCell id="pGt4PrwZ_UuRez9cTg3z-125" style="line;strokeWidth=1;fillColor=none;align=left;verticalAlign=middle;spacingTop=-1;spacingLeft=3;spacingRight=3;rotatable=0;labelPosition=right;points=[];portConstraint=eastwest;strokeColor=inherit;" vertex="1" parent="pGt4PrwZ_UuRez9cTg3z-118">
          <mxGeometry y="210.4" width="623" height="8" as="geometry" />
        </mxCell>
        <mxCell id="pGt4PrwZ_UuRez9cTg3z-126" value="+ generateFromOrder(order : Order, discountPercent : double, billId : int) : : void" style="text;strokeColor=none;fillColor=none;align=left;verticalAlign=top;spacingLeft=4;spacingRight=4;overflow=hidden;rotatable=0;points=[[0,0.5],[1,0.5]];portConstraint=eastwest;" vertex="1" parent="pGt4PrwZ_UuRez9cTg3z-118">
          <mxGeometry y="218.4" width="623" height="30" as="geometry" />
        </mxCell>
        <mxCell id="pGt4PrwZ_UuRez9cTg3z-127" value="+ saveToFile(folder : String) : : String   %% returns filename" style="text;strokeColor=none;fillColor=none;align=left;verticalAlign=top;spacingLeft=4;spacingRight=4;overflow=hidden;rotatable=0;points=[[0,0.5],[1,0.5]];portConstraint=eastwest;" vertex="1" parent="pGt4PrwZ_UuRez9cTg3z-118">
          <mxGeometry y="248.4" width="623" height="30" as="geometry" />
        </mxCell>
        <mxCell id="pGt4PrwZ_UuRez9cTg3z-128" value="+ toString() : : String" style="text;strokeColor=none;fillColor=none;align=left;verticalAlign=top;spacingLeft=4;spacingRight=4;overflow=hidden;rotatable=0;points=[[0,0.5],[1,0.5]];portConstraint=eastwest;" vertex="1" parent="pGt4PrwZ_UuRez9cTg3z-118">
          <mxGeometry y="278.4" width="623" height="30" as="geometry" />
        </mxCell>
        <mxCell id="pGt4PrwZ_UuRez9cTg3z-129" value="CouponManager" style="swimlane;fontStyle=1;align=center;verticalAlign=top;childLayout=stackLayout;horizontal=1;startSize=34.666666666666664;horizontalStack=0;resizeParent=1;resizeParentMax=0;resizeLast=0;collapsible=0;marginBottom=0;" vertex="1" parent="1">
          <mxGeometry x="1522" y="659" width="488" height="217.66666666666666" as="geometry" />
        </mxCell>
        <mxCell id="pGt4PrwZ_UuRez9cTg3z-130" value="- coupons : HashMap&lt;String,Integer&gt;   %% code -&gt; percent" style="text;strokeColor=none;fillColor=none;align=left;verticalAlign=top;spacingLeft=4;spacingRight=4;overflow=hidden;rotatable=0;points=[[0,0.5],[1,0.5]];portConstraint=eastwest;" vertex="1" parent="pGt4PrwZ_UuRez9cTg3z-129">
          <mxGeometry y="34.666666666666664" width="488" height="35" as="geometry" />
        </mxCell>
        <mxCell id="pGt4PrwZ_UuRez9cTg3z-131" value="- couponFilePath : String" style="text;strokeColor=none;fillColor=none;align=left;verticalAlign=top;spacingLeft=4;spacingRight=4;overflow=hidden;rotatable=0;points=[[0,0.5],[1,0.5]];portConstraint=eastwest;" vertex="1" parent="pGt4PrwZ_UuRez9cTg3z-129">
          <mxGeometry y="69.66666666666666" width="488" height="35" as="geometry" />
        </mxCell>
        <mxCell id="pGt4PrwZ_UuRez9cTg3z-132" style="line;strokeWidth=1;fillColor=none;align=left;verticalAlign=middle;spacingTop=-1;spacingLeft=3;spacingRight=3;rotatable=0;labelPosition=right;points=[];portConstraint=eastwest;strokeColor=inherit;" vertex="1" parent="pGt4PrwZ_UuRez9cTg3z-129">
          <mxGeometry y="104.66666666666666" width="488" height="8" as="geometry" />
        </mxCell>
        <mxCell id="pGt4PrwZ_UuRez9cTg3z-133" value="+ loadCoupons(filePath : String) : : void" style="text;strokeColor=none;fillColor=none;align=left;verticalAlign=top;spacingLeft=4;spacingRight=4;overflow=hidden;rotatable=0;points=[[0,0.5],[1,0.5]];portConstraint=eastwest;" vertex="1" parent="pGt4PrwZ_UuRez9cTg3z-129">
          <mxGeometry y="112.66666666666666" width="488" height="35" as="geometry" />
        </mxCell>
        <mxCell id="pGt4PrwZ_UuRez9cTg3z-134" value="+ getDiscount(code : String) : : int" style="text;strokeColor=none;fillColor=none;align=left;verticalAlign=top;spacingLeft=4;spacingRight=4;overflow=hidden;rotatable=0;points=[[0,0.5],[1,0.5]];portConstraint=eastwest;" vertex="1" parent="pGt4PrwZ_UuRez9cTg3z-129">
          <mxGeometry y="147.66666666666666" width="488" height="35" as="geometry" />
        </mxCell>
        <mxCell id="pGt4PrwZ_UuRez9cTg3z-135" value="+ isValid(code : String) : : boolean" style="text;strokeColor=none;fillColor=none;align=left;verticalAlign=top;spacingLeft=4;spacingRight=4;overflow=hidden;rotatable=0;points=[[0,0.5],[1,0.5]];portConstraint=eastwest;" vertex="1" parent="pGt4PrwZ_UuRez9cTg3z-129">
          <mxGeometry y="182.66666666666666" width="488" height="35" as="geometry" />
        </mxCell>
        <mxCell id="pGt4PrwZ_UuRez9cTg3z-136" value="BillingManager" style="swimlane;fontStyle=1;align=center;verticalAlign=top;childLayout=stackLayout;horizontal=1;startSize=33.142857142857146;horizontalStack=0;resizeParent=1;resizeParentMax=0;resizeLast=0;collapsible=0;marginBottom=0;" vertex="1" parent="1">
          <mxGeometry x="955" y="647" width="517" height="239.14285714285714" as="geometry" />
        </mxCell>
        <mxCell id="pGt4PrwZ_UuRez9cTg3z-137" value="- billsFolder : String" style="text;strokeColor=none;fillColor=none;align=left;verticalAlign=top;spacingLeft=4;spacingRight=4;overflow=hidden;rotatable=0;points=[[0,0.5],[1,0.5]];portConstraint=eastwest;" vertex="1" parent="pGt4PrwZ_UuRez9cTg3z-136">
          <mxGeometry y="33.142857142857146" width="517" height="33" as="geometry" />
        </mxCell>
        <mxCell id="pGt4PrwZ_UuRez9cTg3z-138" value="- nextBillNumber : int" style="text;strokeColor=none;fillColor=none;align=left;verticalAlign=top;spacingLeft=4;spacingRight=4;overflow=hidden;rotatable=0;points=[[0,0.5],[1,0.5]];portConstraint=eastwest;" vertex="1" parent="pGt4PrwZ_UuRez9cTg3z-136">
          <mxGeometry y="66.14285714285714" width="517" height="33" as="geometry" />
        </mxCell>
        <mxCell id="pGt4PrwZ_UuRez9cTg3z-139" style="line;strokeWidth=1;fillColor=none;align=left;verticalAlign=middle;spacingTop=-1;spacingLeft=3;spacingRight=3;rotatable=0;labelPosition=right;points=[];portConstraint=eastwest;strokeColor=inherit;" vertex="1" parent="pGt4PrwZ_UuRez9cTg3z-136">
          <mxGeometry y="99.14285714285714" width="517" height="8" as="geometry" />
        </mxCell>
        <mxCell id="pGt4PrwZ_UuRez9cTg3z-140" value="+ BillingManager(folder : String)" style="text;strokeColor=none;fillColor=none;align=left;verticalAlign=top;spacingLeft=4;spacingRight=4;overflow=hidden;rotatable=0;points=[[0,0.5],[1,0.5]];portConstraint=eastwest;" vertex="1" parent="pGt4PrwZ_UuRez9cTg3z-136">
          <mxGeometry y="107.14285714285714" width="517" height="33" as="geometry" />
        </mxCell>
        <mxCell id="pGt4PrwZ_UuRez9cTg3z-141" value="+ initCounter() : : void                %% scans folder to set nextBillNumber" style="text;strokeColor=none;fillColor=none;align=left;verticalAlign=top;spacingLeft=4;spacingRight=4;overflow=hidden;rotatable=0;points=[[0,0.5],[1,0.5]];portConstraint=eastwest;" vertex="1" parent="pGt4PrwZ_UuRez9cTg3z-136">
          <mxGeometry y="140.14285714285714" width="517" height="33" as="geometry" />
        </mxCell>
        <mxCell id="pGt4PrwZ_UuRez9cTg3z-142" value="+ getNextBillNumber() : : int" style="text;strokeColor=none;fillColor=none;align=left;verticalAlign=top;spacingLeft=4;spacingRight=4;overflow=hidden;rotatable=0;points=[[0,0.5],[1,0.5]];portConstraint=eastwest;" vertex="1" parent="pGt4PrwZ_UuRez9cTg3z-136">
          <mxGeometry y="173.14285714285714" width="517" height="33" as="geometry" />
        </mxCell>
        <mxCell id="pGt4PrwZ_UuRez9cTg3z-143" value="+ saveBill(b : Bill) : : String         %% saves bill and returns filepath" style="text;strokeColor=none;fillColor=none;align=left;verticalAlign=top;spacingLeft=4;spacingRight=4;overflow=hidden;rotatable=0;points=[[0,0.5],[1,0.5]];portConstraint=eastwest;" vertex="1" parent="pGt4PrwZ_UuRez9cTg3z-136">
          <mxGeometry y="206.14285714285714" width="517" height="33" as="geometry" />
        </mxCell>
        <mxCell id="pGt4PrwZ_UuRez9cTg3z-144" value="PersistenceUtil" style="swimlane;fontStyle=1;align=center;verticalAlign=top;childLayout=stackLayout;horizontal=1;startSize=36.888888888888886;horizontalStack=0;resizeParent=1;resizeParentMax=0;resizeLast=0;collapsible=0;marginBottom=0;" vertex="1" parent="1">
          <mxGeometry x="1194" y="29" width="468" height="155.88888888888889" as="geometry" />
        </mxCell>
        <mxCell id="pGt4PrwZ_UuRez9cTg3z-145" style="line;strokeWidth=1;fillColor=none;align=left;verticalAlign=middle;spacingTop=-1;spacingLeft=3;spacingRight=3;rotatable=0;labelPosition=right;points=[];portConstraint=eastwest;strokeColor=inherit;" vertex="1" parent="pGt4PrwZ_UuRez9cTg3z-144">
          <mxGeometry y="36.888888888888886" width="468" height="8" as="geometry" />
        </mxCell>
        <mxCell id="pGt4PrwZ_UuRez9cTg3z-146" value="+ ensureFolderExists(path : String) : : void" style="text;strokeColor=none;fillColor=none;align=left;verticalAlign=top;spacingLeft=4;spacingRight=4;overflow=hidden;rotatable=0;points=[[0,0.5],[1,0.5]];portConstraint=eastwest;" vertex="1" parent="pGt4PrwZ_UuRez9cTg3z-144">
          <mxGeometry y="44.888888888888886" width="468" height="37" as="geometry" />
        </mxCell>
        <mxCell id="pGt4PrwZ_UuRez9cTg3z-147" value="+ readLines(path : String) : : List&lt;String&gt;" style="text;strokeColor=none;fillColor=none;align=left;verticalAlign=top;spacingLeft=4;spacingRight=4;overflow=hidden;rotatable=0;points=[[0,0.5],[1,0.5]];portConstraint=eastwest;" vertex="1" parent="pGt4PrwZ_UuRez9cTg3z-144">
          <mxGeometry y="81.88888888888889" width="468" height="37" as="geometry" />
        </mxCell>
        <mxCell id="pGt4PrwZ_UuRez9cTg3z-148" value="+ writeLines(path : String, lines : List&lt;String&gt;) : : void" style="text;strokeColor=none;fillColor=none;align=left;verticalAlign=top;spacingLeft=4;spacingRight=4;overflow=hidden;rotatable=0;points=[[0,0.5],[1,0.5]];portConstraint=eastwest;" vertex="1" parent="pGt4PrwZ_UuRez9cTg3z-144">
          <mxGeometry y="118.88888888888889" width="468" height="37" as="geometry" />
        </mxCell>
        <mxCell id="pGt4PrwZ_UuRez9cTg3z-149" value="contains" style="curved=1;startArrow=none;endArrow=open;endSize=12;exitX=0.5;exitY=1;entryX=0;entryY=0.18;rounded=0;" edge="1" parent="1" source="pGt4PrwZ_UuRez9cTg3z-58" target="pGt4PrwZ_UuRez9cTg3z-72">
          <mxGeometry relative="1" as="geometry">
            <Array as="points">
              <mxPoint x="590" y="2085" />
            </Array>
          </mxGeometry>
        </mxCell>
        <mxCell id="pGt4PrwZ_UuRez9cTg3z-150" value="1" style="edgeLabel;resizable=0;labelBackgroundColor=none;fontSize=12;align=right;verticalAlign=top;" vertex="1" parent="pGt4PrwZ_UuRez9cTg3z-149">
          <mxGeometry x="-1" relative="1" as="geometry" />
        </mxCell>
        <mxCell id="pGt4PrwZ_UuRez9cTg3z-151" value="*" style="edgeLabel;resizable=0;labelBackgroundColor=none;fontSize=12;align=left;verticalAlign=bottom;" vertex="1" parent="pGt4PrwZ_UuRez9cTg3z-149">
          <mxGeometry x="1" relative="1" as="geometry" />
        </mxCell>
        <mxCell id="pGt4PrwZ_UuRez9cTg3z-152" value="" style="curved=1;startArrow=block;startSize=16;startFill=0;endArrow=none;exitX=0;exitY=0.66;entryX=0.5;entryY=0;rounded=0;" edge="1" parent="1" source="pGt4PrwZ_UuRez9cTg3z-79" target="pGt4PrwZ_UuRez9cTg3z-85">
          <mxGeometry relative="1" as="geometry">
            <Array as="points">
              <mxPoint x="590" y="237" />
            </Array>
          </mxGeometry>
        </mxCell>
        <mxCell id="pGt4PrwZ_UuRez9cTg3z-153" value="" style="curved=1;startArrow=block;startSize=16;startFill=0;endArrow=none;exitX=1;exitY=0.75;entryX=0.5;entryY=0;rounded=0;" edge="1" parent="1" source="pGt4PrwZ_UuRez9cTg3z-79" target="pGt4PrwZ_UuRez9cTg3z-93">
          <mxGeometry relative="1" as="geometry">
            <Array as="points">
              <mxPoint x="1317" y="237" />
            </Array>
          </mxGeometry>
        </mxCell>
        <mxCell id="pGt4PrwZ_UuRez9cTg3z-154" value="has" style="curved=1;startArrow=diamondThin;startSize=14;startFill=0;endArrow=none;exitX=0;exitY=0.94;entryX=0;entryY=0.16;rounded=0;" edge="1" parent="1" source="pGt4PrwZ_UuRez9cTg3z-93" target="pGt4PrwZ_UuRez9cTg3z-104">
          <mxGeometry relative="1" as="geometry">
            <Array as="points">
              <mxPoint x="894" y="611" />
              <mxPoint x="894" y="1309" />
            </Array>
          </mxGeometry>
        </mxCell>
        <mxCell id="pGt4PrwZ_UuRez9cTg3z-155" value="1" style="edgeLabel;resizable=0;labelBackgroundColor=none;fontSize=12;align=right;verticalAlign=top;" vertex="1" parent="pGt4PrwZ_UuRez9cTg3z-154">
          <mxGeometry x="-1" relative="1" as="geometry" />
        </mxCell>
        <mxCell id="pGt4PrwZ_UuRez9cTg3z-156" value="1" style="edgeLabel;resizable=0;labelBackgroundColor=none;fontSize=12;align=left;verticalAlign=bottom;" vertex="1" parent="pGt4PrwZ_UuRez9cTg3z-154">
          <mxGeometry x="1" relative="1" as="geometry" />
        </mxCell>
        <mxCell id="pGt4PrwZ_UuRez9cTg3z-157" value="contains" style="curved=1;startArrow=none;endArrow=open;endSize=12;exitX=0.5;exitY=1;entryX=0.5;entryY=0;rounded=0;" edge="1" parent="1" source="pGt4PrwZ_UuRez9cTg3z-104" target="pGt4PrwZ_UuRez9cTg3z-112">
          <mxGeometry relative="1" as="geometry">
            <Array as="points" />
          </mxGeometry>
        </mxCell>
        <mxCell id="pGt4PrwZ_UuRez9cTg3z-158" value="1" style="edgeLabel;resizable=0;labelBackgroundColor=none;fontSize=12;align=right;verticalAlign=top;" vertex="1" parent="pGt4PrwZ_UuRez9cTg3z-157">
          <mxGeometry x="-1" relative="1" as="geometry" />
        </mxCell>
        <mxCell id="pGt4PrwZ_UuRez9cTg3z-159" value="*" style="edgeLabel;resizable=0;labelBackgroundColor=none;fontSize=12;align=left;verticalAlign=bottom;" vertex="1" parent="pGt4PrwZ_UuRez9cTg3z-157">
          <mxGeometry x="1" relative="1" as="geometry" />
        </mxCell>
        <mxCell id="pGt4PrwZ_UuRez9cTg3z-160" value="references" style="curved=1;startArrow=none;endArrow=open;endSize=12;exitX=0.5;exitY=1;entryX=1;entryY=0.01;rounded=0;" edge="1" parent="1" source="pGt4PrwZ_UuRez9cTg3z-112" target="pGt4PrwZ_UuRez9cTg3z-72">
          <mxGeometry relative="1" as="geometry">
            <Array as="points">
              <mxPoint x="1317" y="2085" />
            </Array>
          </mxGeometry>
        </mxCell>
        <mxCell id="pGt4PrwZ_UuRez9cTg3z-161" value="1" style="edgeLabel;resizable=0;labelBackgroundColor=none;fontSize=12;align=left;verticalAlign=bottom;" vertex="1" parent="pGt4PrwZ_UuRez9cTg3z-160">
          <mxGeometry x="1" relative="1" as="geometry" />
        </mxCell>
        <mxCell id="pGt4PrwZ_UuRez9cTg3z-162" value="generatedFrom" style="curved=1;startArrow=none;endArrow=open;endSize=12;exitX=0.5;exitY=1;entryX=0.8;entryY=0;rounded=0;" edge="1" parent="1" source="pGt4PrwZ_UuRez9cTg3z-118" target="pGt4PrwZ_UuRez9cTg3z-104">
          <mxGeometry relative="1" as="geometry">
            <Array as="points">
              <mxPoint x="1490" y="1309" />
            </Array>
          </mxGeometry>
        </mxCell>
        <mxCell id="pGt4PrwZ_UuRez9cTg3z-163" value="1" style="edgeLabel;resizable=0;labelBackgroundColor=none;fontSize=12;align=right;verticalAlign=top;" vertex="1" parent="pGt4PrwZ_UuRez9cTg3z-162">
          <mxGeometry x="-1" relative="1" as="geometry" />
        </mxCell>
        <mxCell id="pGt4PrwZ_UuRez9cTg3z-164" value="1" style="edgeLabel;resizable=0;labelBackgroundColor=none;fontSize=12;align=left;verticalAlign=bottom;" vertex="1" parent="pGt4PrwZ_UuRez9cTg3z-162">
          <mxGeometry x="1" relative="1" as="geometry" />
        </mxCell>
        <mxCell id="pGt4PrwZ_UuRez9cTg3z-165" value="saves" style="curved=1;startArrow=none;endArrow=open;endSize=12;exitX=0.5;exitY=1;entryX=0.14;entryY=0;rounded=0;" edge="1" parent="1" source="pGt4PrwZ_UuRez9cTg3z-136" target="pGt4PrwZ_UuRez9cTg3z-118">
          <mxGeometry relative="1" as="geometry">
            <Array as="points">
              <mxPoint x="1214" y="924" />
            </Array>
          </mxGeometry>
        </mxCell>
        <mxCell id="pGt4PrwZ_UuRez9cTg3z-166" value="uses" style="curved=1;dashed=1;startArrow=none;endArrow=open;endSize=12;exitX=1;exitY=0.91;entryX=0.5;entryY=0;rounded=0;" edge="1" parent="1" source="pGt4PrwZ_UuRez9cTg3z-93" target="pGt4PrwZ_UuRez9cTg3z-129">
          <mxGeometry relative="1" as="geometry">
            <Array as="points">
              <mxPoint x="1766" y="611" />
            </Array>
          </mxGeometry>
        </mxCell>
        <mxCell id="pGt4PrwZ_UuRez9cTg3z-167" value="manages" style="curved=1;dashed=1;startArrow=none;endArrow=open;endSize=12;exitX=0.5;exitY=1;entryX=0.5;entryY=0;rounded=0;" edge="1" parent="1" source="pGt4PrwZ_UuRez9cTg3z-85" target="pGt4PrwZ_UuRez9cTg3z-58">
          <mxGeometry relative="1" as="geometry">
            <Array as="points" />
          </mxGeometry>
        </mxCell>
        <mxCell id="pGt4PrwZ_UuRez9cTg3z-168" value="mayValidateFor" style="curved=1;startArrow=diamondThin;startSize=14;startFill=0;endArrow=none;exitX=0.5;exitY=1;entryX=0.86;entryY=0;rounded=0;" edge="1" parent="1" source="pGt4PrwZ_UuRez9cTg3z-129" target="pGt4PrwZ_UuRez9cTg3z-118">
          <mxGeometry relative="1" as="geometry">
            <Array as="points">
              <mxPoint x="1766" y="924" />
            </Array>
          </mxGeometry>
        </mxCell>
        <mxCell id="pGt4PrwZ_UuRez9cTg3z-169" value="0..*" style="edgeLabel;resizable=0;labelBackgroundColor=none;fontSize=12;align=left;verticalAlign=bottom;" vertex="1" parent="pGt4PrwZ_UuRez9cTg3z-168">
          <mxGeometry x="1" relative="1" as="geometry" />
        </mxCell>
      </root>
    </mxGraphModel>
  </diagram>
  <diagram id="yTvqT8YuZjxFvXtJ1b69" name="Actor Selection">
    <mxGraphModel grid="1" page="1" gridSize="10" guides="1" tooltips="1" connect="1" arrows="1" fold="1" pageScale="1" pageWidth="827" pageHeight="1169" math="0" shadow="0">
      <root>
        <mxCell id="0" />
        <mxCell id="1" parent="0" />
        <mxCell id="4rfKeP0-7omfRLjQUbKh-1" value="User" style="shape=umlLifeline;perimeter=lifelinePerimeter;whiteSpace=wrap;container=1;dropTarget=0;collapsible=0;recursiveResize=0;outlineConnect=0;portConstraint=eastwest;newEdgeStyle={&quot;edgeStyle&quot;:&quot;elbowEdgeStyle&quot;,&quot;elbow&quot;:&quot;vertical&quot;,&quot;curved&quot;:0,&quot;rounded&quot;:0};participant=umlActor;verticalAlign=bottom;labelPosition=center;verticalLabelPosition=top;align=center;size=65;" vertex="1" parent="1">
          <mxGeometry x="20" y="20" width="35" height="627" as="geometry" />
        </mxCell>
        <mxCell id="4rfKeP0-7omfRLjQUbKh-2" value="System Menu" style="shape=umlLifeline;perimeter=lifelinePerimeter;whiteSpace=wrap;container=1;dropTarget=0;collapsible=0;recursiveResize=0;outlineConnect=0;portConstraint=eastwest;newEdgeStyle={&quot;edgeStyle&quot;:&quot;elbowEdgeStyle&quot;,&quot;elbow&quot;:&quot;vertical&quot;,&quot;curved&quot;:0,&quot;rounded&quot;:0};size=65;" vertex="1" parent="1">
          <mxGeometry x="364" y="20" width="150" height="627" as="geometry" />
        </mxCell>
        <mxCell id="4rfKeP0-7omfRLjQUbKh-3" value="Customer Module" style="shape=umlLifeline;perimeter=lifelinePerimeter;whiteSpace=wrap;container=1;dropTarget=0;collapsible=0;recursiveResize=0;outlineConnect=0;portConstraint=eastwest;newEdgeStyle={&quot;edgeStyle&quot;:&quot;elbowEdgeStyle&quot;,&quot;elbow&quot;:&quot;vertical&quot;,&quot;curved&quot;:0,&quot;rounded&quot;:0};size=65;" vertex="1" parent="1">
          <mxGeometry x="621" y="20" width="150" height="627" as="geometry" />
        </mxCell>
        <mxCell id="4rfKeP0-7omfRLjQUbKh-4" value="Admin Module" style="shape=umlLifeline;perimeter=lifelinePerimeter;whiteSpace=wrap;container=1;dropTarget=0;collapsible=0;recursiveResize=0;outlineConnect=0;portConstraint=eastwest;newEdgeStyle={&quot;edgeStyle&quot;:&quot;elbowEdgeStyle&quot;,&quot;elbow&quot;:&quot;vertical&quot;,&quot;curved&quot;:0,&quot;rounded&quot;:0};size=65;" vertex="1" parent="1">
          <mxGeometry x="879" y="20" width="150" height="627" as="geometry" />
        </mxCell>
        <mxCell id="4rfKeP0-7omfRLjQUbKh-5" value="Start Application" style="verticalAlign=bottom;edgeStyle=elbowEdgeStyle;elbow=vertical;curved=0;rounded=0;endArrow=block;" edge="1" parent="1" source="4rfKeP0-7omfRLjQUbKh-1" target="4rfKeP0-7omfRLjQUbKh-2">
          <mxGeometry relative="1" as="geometry">
            <Array as="points">
              <mxPoint x="276" y="127" />
            </Array>
          </mxGeometry>
        </mxCell>
        <mxCell id="4rfKeP0-7omfRLjQUbKh-6" value="Display &quot;Select Role: Customer/Admin&quot;" style="verticalAlign=bottom;edgeStyle=elbowEdgeStyle;elbow=vertical;curved=0;rounded=0;endArrow=block;" edge="1" parent="1" source="4rfKeP0-7omfRLjQUbKh-2" target="4rfKeP0-7omfRLjQUbKh-1">
          <mxGeometry relative="1" as="geometry">
            <Array as="points">
              <mxPoint x="279" y="179" />
            </Array>
          </mxGeometry>
        </mxCell>
        <mxCell id="4rfKeP0-7omfRLjQUbKh-7" value="Select &quot;Customer&quot;" style="verticalAlign=bottom;edgeStyle=elbowEdgeStyle;elbow=vertical;curved=0;rounded=0;endArrow=block;" edge="1" parent="1" source="4rfKeP0-7omfRLjQUbKh-1" target="4rfKeP0-7omfRLjQUbKh-2">
          <mxGeometry relative="1" as="geometry">
            <Array as="points">
              <mxPoint x="276" y="231" />
            </Array>
          </mxGeometry>
        </mxCell>
        <mxCell id="4rfKeP0-7omfRLjQUbKh-8" value="Redirect to Customer Flow" style="verticalAlign=bottom;edgeStyle=elbowEdgeStyle;elbow=vertical;curved=0;rounded=0;endArrow=block;" edge="1" parent="1" source="4rfKeP0-7omfRLjQUbKh-2" target="4rfKeP0-7omfRLjQUbKh-3">
          <mxGeometry relative="1" as="geometry">
            <Array as="points">
              <mxPoint x="576" y="283" />
            </Array>
          </mxGeometry>
        </mxCell>
        <mxCell id="4rfKeP0-7omfRLjQUbKh-9" value="Select &quot;Admin&quot;" style="verticalAlign=bottom;edgeStyle=elbowEdgeStyle;elbow=vertical;curved=0;rounded=0;endArrow=block;" edge="1" parent="1" source="4rfKeP0-7omfRLjQUbKh-1" target="4rfKeP0-7omfRLjQUbKh-2">
          <mxGeometry relative="1" as="geometry">
            <Array as="points">
              <mxPoint x="276" y="422" />
            </Array>
          </mxGeometry>
        </mxCell>
        <mxCell id="4rfKeP0-7omfRLjQUbKh-10" value="Redirect to Admin Flow" style="verticalAlign=bottom;edgeStyle=elbowEdgeStyle;elbow=vertical;curved=0;rounded=0;endArrow=block;" edge="1" parent="1" source="4rfKeP0-7omfRLjQUbKh-2" target="4rfKeP0-7omfRLjQUbKh-4">
          <mxGeometry relative="1" as="geometry">
            <Array as="points">
              <mxPoint x="705" y="474" />
            </Array>
          </mxGeometry>
        </mxCell>
        <mxCell id="4rfKeP0-7omfRLjQUbKh-11" value="Customer can view menu,&#xa;place order, apply coupon,&#xa;and generate/save bill" style="fillColor=#ffff88;strokeColor=#9E916F;" vertex="1" parent="1">
          <mxGeometry x="721" y="303" width="208" height="87" as="geometry" />
        </mxCell>
        <mxCell id="4rfKeP0-7omfRLjQUbKh-12" value="Admin can add/update/remove&#xa;menu items and save changes" style="fillColor=#ffff88;strokeColor=#9E916F;" vertex="1" parent="1">
          <mxGeometry x="979" y="494" width="243" height="68" as="geometry" />
        </mxCell>
      </root>
    </mxGraphModel>
  </diagram>
  <diagram id="mVoIYlyvGDS4Ttl3FIBY" name="Customer Sequence Diagram">
    <mxGraphModel grid="1" page="1" gridSize="10" guides="1" tooltips="1" connect="1" arrows="1" fold="1" pageScale="1" pageWidth="827" pageHeight="1169" math="0" shadow="0">
      <root>
        <mxCell id="0" />
        <mxCell id="1" parent="0" />
        <mxCell id="pv1BZOIAGhj5q-_YnnT3-1" value="Customer" style="shape=umlLifeline;perimeter=lifelinePerimeter;whiteSpace=wrap;container=1;dropTarget=0;collapsible=0;recursiveResize=0;outlineConnect=0;portConstraint=eastwest;newEdgeStyle={&quot;edgeStyle&quot;:&quot;elbowEdgeStyle&quot;,&quot;elbow&quot;:&quot;vertical&quot;,&quot;curved&quot;:0,&quot;rounded&quot;:0};participant=umlActor;verticalAlign=bottom;labelPosition=center;verticalLabelPosition=top;align=center;size=65;" vertex="1" parent="1">
          <mxGeometry x="20" y="20" width="35" height="992" as="geometry" />
        </mxCell>
        <mxCell id="pv1BZOIAGhj5q-_YnnT3-2" value="Menu" style="shape=umlLifeline;perimeter=lifelinePerimeter;whiteSpace=wrap;container=1;dropTarget=0;collapsible=0;recursiveResize=0;outlineConnect=0;portConstraint=eastwest;newEdgeStyle={&quot;edgeStyle&quot;:&quot;elbowEdgeStyle&quot;,&quot;elbow&quot;:&quot;vertical&quot;,&quot;curved&quot;:0,&quot;rounded&quot;:0};size=65;" vertex="1" parent="1">
          <mxGeometry x="220" y="20" width="150" height="992" as="geometry" />
        </mxCell>
        <mxCell id="pv1BZOIAGhj5q-_YnnT3-3" value="Order" style="shape=umlLifeline;perimeter=lifelinePerimeter;whiteSpace=wrap;container=1;dropTarget=0;collapsible=0;recursiveResize=0;outlineConnect=0;portConstraint=eastwest;newEdgeStyle={&quot;edgeStyle&quot;:&quot;elbowEdgeStyle&quot;,&quot;elbow&quot;:&quot;vertical&quot;,&quot;curved&quot;:0,&quot;rounded&quot;:0};size=65;" vertex="1" parent="1">
          <mxGeometry x="420" y="20" width="150" height="992" as="geometry" />
        </mxCell>
        <mxCell id="pv1BZOIAGhj5q-_YnnT3-4" value="BillManager" style="shape=umlLifeline;perimeter=lifelinePerimeter;whiteSpace=wrap;container=1;dropTarget=0;collapsible=0;recursiveResize=0;outlineConnect=0;portConstraint=eastwest;newEdgeStyle={&quot;edgeStyle&quot;:&quot;elbowEdgeStyle&quot;,&quot;elbow&quot;:&quot;vertical&quot;,&quot;curved&quot;:0,&quot;rounded&quot;:0};size=65;" vertex="1" parent="1">
          <mxGeometry x="620" y="20" width="150" height="992" as="geometry" />
        </mxCell>
        <mxCell id="pv1BZOIAGhj5q-_YnnT3-5" value="FileSystem" style="shape=umlLifeline;perimeter=lifelinePerimeter;whiteSpace=wrap;container=1;dropTarget=0;collapsible=0;recursiveResize=0;outlineConnect=0;portConstraint=eastwest;newEdgeStyle={&quot;edgeStyle&quot;:&quot;elbowEdgeStyle&quot;,&quot;elbow&quot;:&quot;vertical&quot;,&quot;curved&quot;:0,&quot;rounded&quot;:0};size=65;" vertex="1" parent="1">
          <mxGeometry x="820" y="20" width="150" height="992" as="geometry" />
        </mxCell>
        <mxCell id="pv1BZOIAGhj5q-_YnnT3-6" value="View Menu()" style="verticalAlign=bottom;edgeStyle=elbowEdgeStyle;elbow=vertical;curved=0;rounded=0;endArrow=block;" edge="1" parent="1" source="pv1BZOIAGhj5q-_YnnT3-1" target="pv1BZOIAGhj5q-_YnnT3-2">
          <mxGeometry relative="1" as="geometry">
            <Array as="points">
              <mxPoint x="204" y="127" />
            </Array>
          </mxGeometry>
        </mxCell>
        <mxCell id="pv1BZOIAGhj5q-_YnnT3-7" value="Show Items" style="verticalAlign=bottom;edgeStyle=elbowEdgeStyle;elbow=vertical;curved=0;rounded=0;dashed=1;dashPattern=2 3;endArrow=block;" edge="1" parent="1" source="pv1BZOIAGhj5q-_YnnT3-2" target="pv1BZOIAGhj5q-_YnnT3-1">
          <mxGeometry relative="1" as="geometry">
            <Array as="points">
              <mxPoint x="207" y="179" />
            </Array>
          </mxGeometry>
        </mxCell>
        <mxCell id="pv1BZOIAGhj5q-_YnnT3-8" value="Add Item(itemId, qty)" style="verticalAlign=bottom;edgeStyle=elbowEdgeStyle;elbow=vertical;curved=0;rounded=0;endArrow=block;" edge="1" parent="1" source="pv1BZOIAGhj5q-_YnnT3-1" target="pv1BZOIAGhj5q-_YnnT3-3">
          <mxGeometry relative="1" as="geometry">
            <Array as="points">
              <mxPoint x="304" y="231" />
            </Array>
          </mxGeometry>
        </mxCell>
        <mxCell id="pv1BZOIAGhj5q-_YnnT3-9" value="Validate Item()" style="verticalAlign=bottom;edgeStyle=elbowEdgeStyle;elbow=vertical;curved=0;rounded=0;endArrow=block;" edge="1" parent="1" source="pv1BZOIAGhj5q-_YnnT3-3" target="pv1BZOIAGhj5q-_YnnT3-2">
          <mxGeometry relative="1" as="geometry">
            <Array as="points">
              <mxPoint x="407" y="283" />
            </Array>
          </mxGeometry>
        </mxCell>
        <mxCell id="pv1BZOIAGhj5q-_YnnT3-10" value="Item OK" style="verticalAlign=bottom;edgeStyle=elbowEdgeStyle;elbow=vertical;curved=0;rounded=0;dashed=1;dashPattern=2 3;endArrow=block;" edge="1" parent="1" source="pv1BZOIAGhj5q-_YnnT3-2" target="pv1BZOIAGhj5q-_YnnT3-3">
          <mxGeometry relative="1" as="geometry">
            <Array as="points">
              <mxPoint x="404" y="335" />
            </Array>
          </mxGeometry>
        </mxCell>
        <mxCell id="pv1BZOIAGhj5q-_YnnT3-11" value="Item Added" style="verticalAlign=bottom;edgeStyle=elbowEdgeStyle;elbow=vertical;curved=0;rounded=0;dashed=1;dashPattern=2 3;endArrow=block;" edge="1" parent="1" source="pv1BZOIAGhj5q-_YnnT3-3" target="pv1BZOIAGhj5q-_YnnT3-1">
          <mxGeometry relative="1" as="geometry">
            <Array as="points">
              <mxPoint x="307" y="387" />
            </Array>
          </mxGeometry>
        </mxCell>
        <mxCell id="pv1BZOIAGhj5q-_YnnT3-12" value="Confirm Order()" style="verticalAlign=bottom;edgeStyle=elbowEdgeStyle;elbow=vertical;curved=0;rounded=0;endArrow=block;" edge="1" parent="1" source="pv1BZOIAGhj5q-_YnnT3-1" target="pv1BZOIAGhj5q-_YnnT3-3">
          <mxGeometry relative="1" as="geometry">
            <Array as="points">
              <mxPoint x="304" y="439" />
            </Array>
          </mxGeometry>
        </mxCell>
        <mxCell id="pv1BZOIAGhj5q-_YnnT3-13" value="Generate Bill()" style="verticalAlign=bottom;edgeStyle=elbowEdgeStyle;elbow=vertical;curved=0;rounded=0;endArrow=block;" edge="1" parent="1" source="pv1BZOIAGhj5q-_YnnT3-3" target="pv1BZOIAGhj5q-_YnnT3-4">
          <mxGeometry relative="1" as="geometry">
            <Array as="points">
              <mxPoint x="604" y="491" />
            </Array>
          </mxGeometry>
        </mxCell>
        <mxCell id="pv1BZOIAGhj5q-_YnnT3-14" value="Bill Displayed" style="verticalAlign=bottom;edgeStyle=elbowEdgeStyle;elbow=vertical;curved=0;rounded=0;dashed=1;dashPattern=2 3;endArrow=block;" edge="1" parent="1" source="pv1BZOIAGhj5q-_YnnT3-4" target="pv1BZOIAGhj5q-_YnnT3-1">
          <mxGeometry relative="1" as="geometry">
            <Array as="points">
              <mxPoint x="407" y="543" />
            </Array>
          </mxGeometry>
        </mxCell>
        <mxCell id="pv1BZOIAGhj5q-_YnnT3-15" value="Apply Coupon(code)" style="verticalAlign=bottom;edgeStyle=elbowEdgeStyle;elbow=vertical;curved=0;rounded=0;endArrow=block;" edge="1" parent="1" source="pv1BZOIAGhj5q-_YnnT3-1" target="pv1BZOIAGhj5q-_YnnT3-4">
          <mxGeometry relative="1" as="geometry">
            <Array as="points">
              <mxPoint x="404" y="595" />
            </Array>
          </mxGeometry>
        </mxCell>
        <mxCell id="pv1BZOIAGhj5q-_YnnT3-16" value="Read Coupons.txt" style="verticalAlign=bottom;edgeStyle=elbowEdgeStyle;elbow=vertical;curved=0;rounded=0;endArrow=block;" edge="1" parent="1" source="pv1BZOIAGhj5q-_YnnT3-4" target="pv1BZOIAGhj5q-_YnnT3-5">
          <mxGeometry relative="1" as="geometry">
            <Array as="points">
              <mxPoint x="804" y="647" />
            </Array>
          </mxGeometry>
        </mxCell>
        <mxCell id="pv1BZOIAGhj5q-_YnnT3-17" value="Coupons Data" style="verticalAlign=bottom;edgeStyle=elbowEdgeStyle;elbow=vertical;curved=0;rounded=0;dashed=1;dashPattern=2 3;endArrow=block;" edge="1" parent="1" source="pv1BZOIAGhj5q-_YnnT3-5" target="pv1BZOIAGhj5q-_YnnT3-4">
          <mxGeometry relative="1" as="geometry">
            <Array as="points">
              <mxPoint x="807" y="699" />
            </Array>
          </mxGeometry>
        </mxCell>
        <mxCell id="pv1BZOIAGhj5q-_YnnT3-18" value="Bill with Discount" style="verticalAlign=bottom;edgeStyle=elbowEdgeStyle;elbow=vertical;curved=0;rounded=0;dashed=1;dashPattern=2 3;endArrow=block;" edge="1" parent="1" source="pv1BZOIAGhj5q-_YnnT3-4" target="pv1BZOIAGhj5q-_YnnT3-1">
          <mxGeometry relative="1" as="geometry">
            <Array as="points">
              <mxPoint x="407" y="751" />
            </Array>
          </mxGeometry>
        </mxCell>
        <mxCell id="pv1BZOIAGhj5q-_YnnT3-19" value="Save Bill()" style="verticalAlign=bottom;edgeStyle=elbowEdgeStyle;elbow=vertical;curved=0;rounded=0;endArrow=block;" edge="1" parent="1" source="pv1BZOIAGhj5q-_YnnT3-4" target="pv1BZOIAGhj5q-_YnnT3-5">
          <mxGeometry relative="1" as="geometry">
            <Array as="points">
              <mxPoint x="804" y="803" />
            </Array>
          </mxGeometry>
        </mxCell>
        <mxCell id="pv1BZOIAGhj5q-_YnnT3-20" value="Bill Saved" style="verticalAlign=bottom;edgeStyle=elbowEdgeStyle;elbow=vertical;curved=0;rounded=0;dashed=1;dashPattern=2 3;endArrow=block;" edge="1" parent="1" source="pv1BZOIAGhj5q-_YnnT3-5" target="pv1BZOIAGhj5q-_YnnT3-4">
          <mxGeometry relative="1" as="geometry">
            <Array as="points">
              <mxPoint x="807" y="855" />
            </Array>
          </mxGeometry>
        </mxCell>
        <mxCell id="pv1BZOIAGhj5q-_YnnT3-21" value="Order Completed" style="verticalAlign=bottom;edgeStyle=elbowEdgeStyle;elbow=vertical;curved=0;rounded=0;dashed=1;dashPattern=2 3;endArrow=block;" edge="1" parent="1" source="pv1BZOIAGhj5q-_YnnT3-4" target="pv1BZOIAGhj5q-_YnnT3-1">
          <mxGeometry relative="1" as="geometry">
            <Array as="points">
              <mxPoint x="407" y="907" />
            </Array>
          </mxGeometry>
        </mxCell>
      </root>
    </mxGraphModel>
  </diagram>
  <diagram id="JdGo91WZzPhvCE9WaXc5" name="Admin Sequence Diagram">
    <mxGraphModel grid="1" page="1" gridSize="10" guides="1" tooltips="1" connect="1" arrows="1" fold="1" pageScale="1" pageWidth="827" pageHeight="1169" math="0" shadow="0">
      <root>
        <mxCell id="0" />
        <mxCell id="1" parent="0" />
        <mxCell id="SkV4tKG9V0OFslgaGaOR-1" value="Admin" style="shape=umlLifeline;perimeter=lifelinePerimeter;whiteSpace=wrap;container=1;dropTarget=0;collapsible=0;recursiveResize=0;outlineConnect=0;portConstraint=eastwest;newEdgeStyle={&quot;edgeStyle&quot;:&quot;elbowEdgeStyle&quot;,&quot;elbow&quot;:&quot;vertical&quot;,&quot;curved&quot;:0,&quot;rounded&quot;:0};participant=umlActor;verticalAlign=bottom;labelPosition=center;verticalLabelPosition=top;align=center;size=65;" vertex="1" parent="1">
          <mxGeometry x="20" y="20" width="35" height="888" as="geometry" />
        </mxCell>
        <mxCell id="SkV4tKG9V0OFslgaGaOR-2" value="Menu" style="shape=umlLifeline;perimeter=lifelinePerimeter;whiteSpace=wrap;container=1;dropTarget=0;collapsible=0;recursiveResize=0;outlineConnect=0;portConstraint=eastwest;newEdgeStyle={&quot;edgeStyle&quot;:&quot;elbowEdgeStyle&quot;,&quot;elbow&quot;:&quot;vertical&quot;,&quot;curved&quot;:0,&quot;rounded&quot;:0};size=65;" vertex="1" parent="1">
          <mxGeometry x="287" y="20" width="150" height="888" as="geometry" />
        </mxCell>
        <mxCell id="SkV4tKG9V0OFslgaGaOR-3" value="FileSystem" style="shape=umlLifeline;perimeter=lifelinePerimeter;whiteSpace=wrap;container=1;dropTarget=0;collapsible=0;recursiveResize=0;outlineConnect=0;portConstraint=eastwest;newEdgeStyle={&quot;edgeStyle&quot;:&quot;elbowEdgeStyle&quot;,&quot;elbow&quot;:&quot;vertical&quot;,&quot;curved&quot;:0,&quot;rounded&quot;:0};size=65;" vertex="1" parent="1">
          <mxGeometry x="487" y="20" width="150" height="888" as="geometry" />
        </mxCell>
        <mxCell id="SkV4tKG9V0OFslgaGaOR-4" value="Load Menu()" style="verticalAlign=bottom;edgeStyle=elbowEdgeStyle;elbow=vertical;curved=0;rounded=0;endArrow=block;" edge="1" parent="1" source="SkV4tKG9V0OFslgaGaOR-1" target="SkV4tKG9V0OFslgaGaOR-2">
          <mxGeometry relative="1" as="geometry">
            <Array as="points">
              <mxPoint x="237" y="127" />
            </Array>
          </mxGeometry>
        </mxCell>
        <mxCell id="SkV4tKG9V0OFslgaGaOR-5" value="Read menu.txt" style="verticalAlign=bottom;edgeStyle=elbowEdgeStyle;elbow=vertical;curved=0;rounded=0;endArrow=block;" edge="1" parent="1" source="SkV4tKG9V0OFslgaGaOR-2" target="SkV4tKG9V0OFslgaGaOR-3">
          <mxGeometry relative="1" as="geometry">
            <Array as="points">
              <mxPoint x="471" y="179" />
            </Array>
          </mxGeometry>
        </mxCell>
        <mxCell id="SkV4tKG9V0OFslgaGaOR-6" value="Menu Data" style="verticalAlign=bottom;edgeStyle=elbowEdgeStyle;elbow=vertical;curved=0;rounded=0;dashed=1;dashPattern=2 3;endArrow=block;" edge="1" parent="1" source="SkV4tKG9V0OFslgaGaOR-3" target="SkV4tKG9V0OFslgaGaOR-2">
          <mxGeometry relative="1" as="geometry">
            <Array as="points">
              <mxPoint x="474" y="231" />
            </Array>
          </mxGeometry>
        </mxCell>
        <mxCell id="SkV4tKG9V0OFslgaGaOR-7" value="Display Menu" style="verticalAlign=bottom;edgeStyle=elbowEdgeStyle;elbow=vertical;curved=0;rounded=0;dashed=1;dashPattern=2 3;endArrow=block;" edge="1" parent="1" source="SkV4tKG9V0OFslgaGaOR-2" target="SkV4tKG9V0OFslgaGaOR-1">
          <mxGeometry relative="1" as="geometry">
            <Array as="points">
              <mxPoint x="240" y="283" />
            </Array>
          </mxGeometry>
        </mxCell>
        <mxCell id="SkV4tKG9V0OFslgaGaOR-8" value="Add Item(newItem)" style="verticalAlign=bottom;edgeStyle=elbowEdgeStyle;elbow=vertical;curved=0;rounded=0;endArrow=block;" edge="1" parent="1" source="SkV4tKG9V0OFslgaGaOR-1" target="SkV4tKG9V0OFslgaGaOR-2">
          <mxGeometry relative="1" as="geometry">
            <Array as="points">
              <mxPoint x="237" y="335" />
            </Array>
          </mxGeometry>
        </mxCell>
        <mxCell id="SkV4tKG9V0OFslgaGaOR-9" value="Item Added" style="verticalAlign=bottom;edgeStyle=elbowEdgeStyle;elbow=vertical;curved=0;rounded=0;dashed=1;dashPattern=2 3;endArrow=block;" edge="1" parent="1" source="SkV4tKG9V0OFslgaGaOR-2" target="SkV4tKG9V0OFslgaGaOR-1">
          <mxGeometry relative="1" as="geometry">
            <Array as="points">
              <mxPoint x="240" y="387" />
            </Array>
          </mxGeometry>
        </mxCell>
        <mxCell id="SkV4tKG9V0OFslgaGaOR-10" value="Update Item(itemId, details)" style="verticalAlign=bottom;edgeStyle=elbowEdgeStyle;elbow=vertical;curved=0;rounded=0;endArrow=block;" edge="1" parent="1" source="SkV4tKG9V0OFslgaGaOR-1" target="SkV4tKG9V0OFslgaGaOR-2">
          <mxGeometry relative="1" as="geometry">
            <Array as="points">
              <mxPoint x="237" y="439" />
            </Array>
          </mxGeometry>
        </mxCell>
        <mxCell id="SkV4tKG9V0OFslgaGaOR-11" value="Item Updated" style="verticalAlign=bottom;edgeStyle=elbowEdgeStyle;elbow=vertical;curved=0;rounded=0;dashed=1;dashPattern=2 3;endArrow=block;" edge="1" parent="1" source="SkV4tKG9V0OFslgaGaOR-2" target="SkV4tKG9V0OFslgaGaOR-1">
          <mxGeometry relative="1" as="geometry">
            <Array as="points">
              <mxPoint x="240" y="491" />
            </Array>
          </mxGeometry>
        </mxCell>
        <mxCell id="SkV4tKG9V0OFslgaGaOR-12" value="Remove Item(itemId)" style="verticalAlign=bottom;edgeStyle=elbowEdgeStyle;elbow=vertical;curved=0;rounded=0;endArrow=block;" edge="1" parent="1" source="SkV4tKG9V0OFslgaGaOR-1" target="SkV4tKG9V0OFslgaGaOR-2">
          <mxGeometry relative="1" as="geometry">
            <Array as="points">
              <mxPoint x="237" y="543" />
            </Array>
          </mxGeometry>
        </mxCell>
        <mxCell id="SkV4tKG9V0OFslgaGaOR-13" value="Item Removed" style="verticalAlign=bottom;edgeStyle=elbowEdgeStyle;elbow=vertical;curved=0;rounded=0;dashed=1;dashPattern=2 3;endArrow=block;" edge="1" parent="1" source="SkV4tKG9V0OFslgaGaOR-2" target="SkV4tKG9V0OFslgaGaOR-1">
          <mxGeometry relative="1" as="geometry">
            <Array as="points">
              <mxPoint x="240" y="595" />
            </Array>
          </mxGeometry>
        </mxCell>
        <mxCell id="SkV4tKG9V0OFslgaGaOR-14" value="Save Menu()" style="verticalAlign=bottom;edgeStyle=elbowEdgeStyle;elbow=vertical;curved=0;rounded=0;endArrow=block;" edge="1" parent="1" source="SkV4tKG9V0OFslgaGaOR-1" target="SkV4tKG9V0OFslgaGaOR-2">
          <mxGeometry relative="1" as="geometry">
            <Array as="points">
              <mxPoint x="237" y="647" />
            </Array>
          </mxGeometry>
        </mxCell>
        <mxCell id="SkV4tKG9V0OFslgaGaOR-15" value="Write menu.txt" style="verticalAlign=bottom;edgeStyle=elbowEdgeStyle;elbow=vertical;curved=0;rounded=0;endArrow=block;" edge="1" parent="1" source="SkV4tKG9V0OFslgaGaOR-2" target="SkV4tKG9V0OFslgaGaOR-3">
          <mxGeometry relative="1" as="geometry">
            <Array as="points">
              <mxPoint x="471" y="699" />
            </Array>
          </mxGeometry>
        </mxCell>
        <mxCell id="SkV4tKG9V0OFslgaGaOR-16" value="Saved" style="verticalAlign=bottom;edgeStyle=elbowEdgeStyle;elbow=vertical;curved=0;rounded=0;dashed=1;dashPattern=2 3;endArrow=block;" edge="1" parent="1" source="SkV4tKG9V0OFslgaGaOR-3" target="SkV4tKG9V0OFslgaGaOR-2">
          <mxGeometry relative="1" as="geometry">
            <Array as="points">
              <mxPoint x="474" y="751" />
            </Array>
          </mxGeometry>
        </mxCell>
        <mxCell id="SkV4tKG9V0OFslgaGaOR-17" value="Confirmation" style="verticalAlign=bottom;edgeStyle=elbowEdgeStyle;elbow=vertical;curved=0;rounded=0;dashed=1;dashPattern=2 3;endArrow=block;" edge="1" parent="1" source="SkV4tKG9V0OFslgaGaOR-2" target="SkV4tKG9V0OFslgaGaOR-1">
          <mxGeometry relative="1" as="geometry">
            <Array as="points">
              <mxPoint x="240" y="803" />
            </Array>
          </mxGeometry>
        </mxCell>
      </root>
    </mxGraphModel>
  </diagram>
  <diagram id="YrBYN01tO_AmHoGyRj7-" name="Menu Class">
    <mxGraphModel grid="1" page="1" gridSize="10" guides="1" tooltips="1" connect="1" arrows="1" fold="1" pageScale="1" pageWidth="827" pageHeight="1169" math="0" shadow="0">
      <root>
        <mxCell id="0" />
        <mxCell id="1" parent="0" />
        <mxCell id="QAy7i6Q8kkO41h-CMSzS-1" value="Menu" style="shape=umlLifeline;perimeter=lifelinePerimeter;whiteSpace=wrap;container=1;dropTarget=0;collapsible=0;recursiveResize=0;outlineConnect=0;portConstraint=eastwest;newEdgeStyle={&quot;edgeStyle&quot;:&quot;elbowEdgeStyle&quot;,&quot;elbow&quot;:&quot;vertical&quot;,&quot;curved&quot;:0,&quot;rounded&quot;:0};size=65;" vertex="1" parent="1">
          <mxGeometry x="20" y="20" width="150" height="368" as="geometry" />
        </mxCell>
        <mxCell id="QAy7i6Q8kkO41h-CMSzS-2" value="FileSystem" style="shape=umlLifeline;perimeter=lifelinePerimeter;whiteSpace=wrap;container=1;dropTarget=0;collapsible=0;recursiveResize=0;outlineConnect=0;portConstraint=eastwest;newEdgeStyle={&quot;edgeStyle&quot;:&quot;elbowEdgeStyle&quot;,&quot;elbow&quot;:&quot;vertical&quot;,&quot;curved&quot;:0,&quot;rounded&quot;:0};size=65;" vertex="1" parent="1">
          <mxGeometry x="225" y="20" width="150" height="368" as="geometry" />
        </mxCell>
        <mxCell id="QAy7i6Q8kkO41h-CMSzS-3" value="Read menu.txt" style="verticalAlign=bottom;edgeStyle=elbowEdgeStyle;elbow=vertical;curved=0;rounded=0;endArrow=block;" edge="1" parent="1" source="QAy7i6Q8kkO41h-CMSzS-1" target="QAy7i6Q8kkO41h-CMSzS-2">
          <mxGeometry relative="1" as="geometry">
            <Array as="points">
              <mxPoint x="206" y="127" />
            </Array>
          </mxGeometry>
        </mxCell>
        <mxCell id="QAy7i6Q8kkO41h-CMSzS-4" value="Menu Data Loaded" style="verticalAlign=bottom;edgeStyle=elbowEdgeStyle;elbow=vertical;curved=0;rounded=0;dashed=1;dashPattern=2 3;endArrow=block;" edge="1" parent="1" source="QAy7i6Q8kkO41h-CMSzS-2" target="QAy7i6Q8kkO41h-CMSzS-1">
          <mxGeometry relative="1" as="geometry">
            <Array as="points">
              <mxPoint x="209" y="179" />
            </Array>
          </mxGeometry>
        </mxCell>
        <mxCell id="QAy7i6Q8kkO41h-CMSzS-5" value="Write menu.txt" style="verticalAlign=bottom;edgeStyle=elbowEdgeStyle;elbow=vertical;curved=0;rounded=0;endArrow=block;" edge="1" parent="1" source="QAy7i6Q8kkO41h-CMSzS-1" target="QAy7i6Q8kkO41h-CMSzS-2">
          <mxGeometry relative="1" as="geometry">
            <Array as="points">
              <mxPoint x="206" y="231" />
            </Array>
          </mxGeometry>
        </mxCell>
        <mxCell id="QAy7i6Q8kkO41h-CMSzS-6" value="Save Successful" style="verticalAlign=bottom;edgeStyle=elbowEdgeStyle;elbow=vertical;curved=0;rounded=0;dashed=1;dashPattern=2 3;endArrow=block;" edge="1" parent="1" source="QAy7i6Q8kkO41h-CMSzS-2" target="QAy7i6Q8kkO41h-CMSzS-1">
          <mxGeometry relative="1" as="geometry">
            <Array as="points">
              <mxPoint x="209" y="283" />
            </Array>
          </mxGeometry>
        </mxCell>
      </root>
    </mxGraphModel>
  </diagram>
  <diagram id="98XDa6tOtWj1GxFVGfEb" name="Order Class">
    <mxGraphModel grid="1" page="1" gridSize="10" guides="1" tooltips="1" connect="1" arrows="1" fold="1" pageScale="1" pageWidth="827" pageHeight="1169" math="0" shadow="0">
      <root>
        <mxCell id="0" />
        <mxCell id="1" parent="0" />
        <mxCell id="wvkIormb5pE7CvnCCjC3-1" value="Order" style="shape=umlLifeline;perimeter=lifelinePerimeter;whiteSpace=wrap;container=1;dropTarget=0;collapsible=0;recursiveResize=0;outlineConnect=0;portConstraint=eastwest;newEdgeStyle={&quot;edgeStyle&quot;:&quot;elbowEdgeStyle&quot;,&quot;elbow&quot;:&quot;vertical&quot;,&quot;curved&quot;:0,&quot;rounded&quot;:0};size=65;" vertex="1" parent="1">
          <mxGeometry x="20" y="20" width="150" height="428" as="geometry" />
        </mxCell>
        <mxCell id="wvkIormb5pE7CvnCCjC3-2" value="Menu" style="shape=umlLifeline;perimeter=lifelinePerimeter;whiteSpace=wrap;container=1;dropTarget=0;collapsible=0;recursiveResize=0;outlineConnect=0;portConstraint=eastwest;newEdgeStyle={&quot;edgeStyle&quot;:&quot;elbowEdgeStyle&quot;,&quot;elbow&quot;:&quot;vertical&quot;,&quot;curved&quot;:0,&quot;rounded&quot;:0};size=65;" vertex="1" parent="1">
          <mxGeometry x="238" y="20" width="150" height="428" as="geometry" />
        </mxCell>
        <mxCell id="wvkIormb5pE7CvnCCjC3-3" value="Validate Item(itemId)" style="verticalAlign=bottom;edgeStyle=elbowEdgeStyle;elbow=vertical;curved=0;rounded=0;endArrow=block;" edge="1" parent="1" source="wvkIormb5pE7CvnCCjC3-1" target="wvkIormb5pE7CvnCCjC3-2">
          <mxGeometry relative="1" as="geometry">
            <Array as="points">
              <mxPoint x="213" y="127" />
            </Array>
          </mxGeometry>
        </mxCell>
        <mxCell id="wvkIormb5pE7CvnCCjC3-4" value="Item Details" style="verticalAlign=bottom;edgeStyle=elbowEdgeStyle;elbow=vertical;curved=0;rounded=0;dashed=1;dashPattern=2 3;endArrow=block;" edge="1" parent="1" source="wvkIormb5pE7CvnCCjC3-2" target="wvkIormb5pE7CvnCCjC3-1">
          <mxGeometry relative="1" as="geometry">
            <Array as="points">
              <mxPoint x="216" y="179" />
            </Array>
          </mxGeometry>
        </mxCell>
        <mxCell id="wvkIormb5pE7CvnCCjC3-5" value="Add to Order List" style="curved=1;endArrow=block;rounded=0;" edge="1" parent="1" source="wvkIormb5pE7CvnCCjC3-1" target="wvkIormb5pE7CvnCCjC3-1">
          <mxGeometry relative="1" as="geometry">
            <Array as="points">
              <mxPoint x="146" y="231" />
              <mxPoint x="146" y="261" />
            </Array>
          </mxGeometry>
        </mxCell>
        <mxCell id="wvkIormb5pE7CvnCCjC3-6" value="Calculate Total" style="curved=1;endArrow=block;rounded=0;" edge="1" parent="1" source="wvkIormb5pE7CvnCCjC3-1" target="wvkIormb5pE7CvnCCjC3-1">
          <mxGeometry relative="1" as="geometry">
            <Array as="points">
              <mxPoint x="146" y="313" />
              <mxPoint x="146" y="343" />
            </Array>
          </mxGeometry>
        </mxCell>
      </root>
    </mxGraphModel>
  </diagram>
  <diagram id="FVB6B-__WzQiuw1CL946" name="BillManager Class">
    <mxGraphModel grid="1" page="1" gridSize="10" guides="1" tooltips="1" connect="1" arrows="1" fold="1" pageScale="1" pageWidth="827" pageHeight="1169" math="0" shadow="0">
      <root>
        <mxCell id="0" />
        <mxCell id="1" parent="0" />
        <mxCell id="c0G0E4DmomDkItMHdRDm-1" value="BillManager" style="shape=umlLifeline;perimeter=lifelinePerimeter;whiteSpace=wrap;container=1;dropTarget=0;collapsible=0;recursiveResize=0;outlineConnect=0;portConstraint=eastwest;newEdgeStyle={&quot;edgeStyle&quot;:&quot;elbowEdgeStyle&quot;,&quot;elbow&quot;:&quot;vertical&quot;,&quot;curved&quot;:0,&quot;rounded&quot;:0};size=65;" vertex="1" parent="1">
          <mxGeometry x="20" y="20" width="150" height="532" as="geometry" />
        </mxCell>
        <mxCell id="c0G0E4DmomDkItMHdRDm-2" value="FileSystem" style="shape=umlLifeline;perimeter=lifelinePerimeter;whiteSpace=wrap;container=1;dropTarget=0;collapsible=0;recursiveResize=0;outlineConnect=0;portConstraint=eastwest;newEdgeStyle={&quot;edgeStyle&quot;:&quot;elbowEdgeStyle&quot;,&quot;elbow&quot;:&quot;vertical&quot;,&quot;curved&quot;:0,&quot;rounded&quot;:0};size=65;" vertex="1" parent="1">
          <mxGeometry x="220" y="20" width="150" height="532" as="geometry" />
        </mxCell>
        <mxCell id="c0G0E4DmomDkItMHdRDm-3" value="Generate Bill(order)" style="curved=1;endArrow=block;rounded=0;" edge="1" parent="1" source="c0G0E4DmomDkItMHdRDm-1" target="c0G0E4DmomDkItMHdRDm-1">
          <mxGeometry relative="1" as="geometry">
            <Array as="points">
              <mxPoint x="146" y="127" />
              <mxPoint x="146" y="157" />
            </Array>
          </mxGeometry>
        </mxCell>
        <mxCell id="c0G0E4DmomDkItMHdRDm-4" value="Read Coupons.txt" style="verticalAlign=bottom;edgeStyle=elbowEdgeStyle;elbow=vertical;curved=0;rounded=0;endArrow=block;" edge="1" parent="1" source="c0G0E4DmomDkItMHdRDm-1" target="c0G0E4DmomDkItMHdRDm-2">
          <mxGeometry relative="1" as="geometry">
            <Array as="points">
              <mxPoint x="204" y="209" />
            </Array>
          </mxGeometry>
        </mxCell>
        <mxCell id="c0G0E4DmomDkItMHdRDm-5" value="Coupons Loaded" style="verticalAlign=bottom;edgeStyle=elbowEdgeStyle;elbow=vertical;curved=0;rounded=0;dashed=1;dashPattern=2 3;endArrow=block;" edge="1" parent="1" source="c0G0E4DmomDkItMHdRDm-2" target="c0G0E4DmomDkItMHdRDm-1">
          <mxGeometry relative="1" as="geometry">
            <Array as="points">
              <mxPoint x="207" y="261" />
            </Array>
          </mxGeometry>
        </mxCell>
        <mxCell id="c0G0E4DmomDkItMHdRDm-6" value="Apply Coupon" style="curved=1;endArrow=block;rounded=0;" edge="1" parent="1" source="c0G0E4DmomDkItMHdRDm-1" target="c0G0E4DmomDkItMHdRDm-1">
          <mxGeometry relative="1" as="geometry">
            <Array as="points">
              <mxPoint x="146" y="313" />
              <mxPoint x="146" y="343" />
            </Array>
          </mxGeometry>
        </mxCell>
        <mxCell id="c0G0E4DmomDkItMHdRDm-7" value="Save Bill(bill.txt)" style="verticalAlign=bottom;edgeStyle=elbowEdgeStyle;elbow=vertical;curved=0;rounded=0;endArrow=block;" edge="1" parent="1" source="c0G0E4DmomDkItMHdRDm-1" target="c0G0E4DmomDkItMHdRDm-2">
          <mxGeometry relative="1" as="geometry">
            <Array as="points">
              <mxPoint x="204" y="395" />
            </Array>
          </mxGeometry>
        </mxCell>
        <mxCell id="c0G0E4DmomDkItMHdRDm-8" value="Save Success" style="verticalAlign=bottom;edgeStyle=elbowEdgeStyle;elbow=vertical;curved=0;rounded=0;dashed=1;dashPattern=2 3;endArrow=block;" edge="1" parent="1" source="c0G0E4DmomDkItMHdRDm-2" target="c0G0E4DmomDkItMHdRDm-1">
          <mxGeometry relative="1" as="geometry">
            <Array as="points">
              <mxPoint x="207" y="447" />
            </Array>
          </mxGeometry>
        </mxCell>
      </root>
    </mxGraphModel>
  </diagram>
  <diagram id="nDixQSCUpOIKpeqMYF1F" name="FileSystem">
    <mxGraphModel grid="1" page="1" gridSize="10" guides="1" tooltips="1" connect="1" arrows="1" fold="1" pageScale="1" pageWidth="827" pageHeight="1169" math="0" shadow="0">
      <root>
        <mxCell id="0" />
        <mxCell id="1" parent="0" />
        <mxCell id="EZamx1t_LHUBOaa1KCng-1" value="FileSystem" style="shape=umlLifeline;perimeter=lifelinePerimeter;whiteSpace=wrap;container=1;dropTarget=0;collapsible=0;recursiveResize=0;outlineConnect=0;portConstraint=eastwest;newEdgeStyle={&quot;edgeStyle&quot;:&quot;elbowEdgeStyle&quot;,&quot;elbow&quot;:&quot;vertical&quot;,&quot;curved&quot;:0,&quot;rounded&quot;:0};size=65;" vertex="1" parent="1">
          <mxGeometry x="20" y="20" width="150" height="488" as="geometry" />
        </mxCell>
        <mxCell id="EZamx1t_LHUBOaa1KCng-2" value="Read File(fileName)" style="curved=1;endArrow=block;rounded=0;" edge="1" parent="1" source="EZamx1t_LHUBOaa1KCng-1" target="EZamx1t_LHUBOaa1KCng-1">
          <mxGeometry relative="1" as="geometry">
            <Array as="points">
              <mxPoint x="146" y="127" />
              <mxPoint x="146" y="157" />
            </Array>
          </mxGeometry>
        </mxCell>
        <mxCell id="EZamx1t_LHUBOaa1KCng-3" value="Return Data" style="curved=1;dashed=1;dashPattern=2 3;endArrow=block;rounded=0;" edge="1" parent="1" source="EZamx1t_LHUBOaa1KCng-1" target="EZamx1t_LHUBOaa1KCng-1">
          <mxGeometry relative="1" as="geometry">
            <Array as="points">
              <mxPoint x="146" y="209" />
              <mxPoint x="146" y="239" />
            </Array>
          </mxGeometry>
        </mxCell>
        <mxCell id="EZamx1t_LHUBOaa1KCng-4" value="Write File(fileName, data)" style="curved=1;endArrow=block;rounded=0;" edge="1" parent="1" source="EZamx1t_LHUBOaa1KCng-1" target="EZamx1t_LHUBOaa1KCng-1">
          <mxGeometry relative="1" as="geometry">
            <Array as="points">
              <mxPoint x="146" y="291" />
              <mxPoint x="146" y="321" />
            </Array>
          </mxGeometry>
        </mxCell>
        <mxCell id="EZamx1t_LHUBOaa1KCng-5" value="Confirm Write" style="curved=1;dashed=1;dashPattern=2 3;endArrow=block;rounded=0;" edge="1" parent="1" source="EZamx1t_LHUBOaa1KCng-1" target="EZamx1t_LHUBOaa1KCng-1">
          <mxGeometry relative="1" as="geometry">
            <Array as="points">
              <mxPoint x="146" y="373" />
              <mxPoint x="146" y="403" />
            </Array>
          </mxGeometry>
        </mxCell>
      </root>
    </mxGraphModel>
  </diagram>
  <diagram id="RQ5gnGb3R41sJnOsrpEs" name="Customer and Admin Flow">
    <mxGraphModel grid="1" page="1" gridSize="10" guides="1" tooltips="1" connect="1" arrows="1" fold="1" pageScale="1" pageWidth="827" pageHeight="1169" math="0" shadow="0">
      <root>
        <mxCell id="0" />
        <mxCell id="1" parent="0" />
        <mxCell id="I8DWgWoUEpo2xdy1KnTZ-1" value="User" style="shape=umlLifeline;perimeter=lifelinePerimeter;whiteSpace=wrap;container=1;dropTarget=0;collapsible=0;recursiveResize=0;outlineConnect=0;portConstraint=eastwest;newEdgeStyle={&quot;edgeStyle&quot;:&quot;elbowEdgeStyle&quot;,&quot;elbow&quot;:&quot;vertical&quot;,&quot;curved&quot;:0,&quot;rounded&quot;:0};participant=umlActor;verticalAlign=bottom;labelPosition=center;verticalLabelPosition=top;align=center;size=65;" vertex="1" parent="1">
          <mxGeometry x="20" y="20" width="35" height="1510" as="geometry" />
        </mxCell>
        <mxCell id="I8DWgWoUEpo2xdy1KnTZ-2" value="System Menu" style="shape=umlLifeline;perimeter=lifelinePerimeter;whiteSpace=wrap;container=1;dropTarget=0;collapsible=0;recursiveResize=0;outlineConnect=0;portConstraint=eastwest;newEdgeStyle={&quot;edgeStyle&quot;:&quot;elbowEdgeStyle&quot;,&quot;elbow&quot;:&quot;vertical&quot;,&quot;curved&quot;:0,&quot;rounded&quot;:0};size=65;" vertex="1" parent="1">
          <mxGeometry x="364" y="20" width="150" height="1510" as="geometry" />
        </mxCell>
        <mxCell id="I8DWgWoUEpo2xdy1KnTZ-3" value="Customer Module" style="shape=umlLifeline;perimeter=lifelinePerimeter;whiteSpace=wrap;container=1;dropTarget=0;collapsible=0;recursiveResize=0;outlineConnect=0;portConstraint=eastwest;newEdgeStyle={&quot;edgeStyle&quot;:&quot;elbowEdgeStyle&quot;,&quot;elbow&quot;:&quot;vertical&quot;,&quot;curved&quot;:0,&quot;rounded&quot;:0};size=65;" vertex="1" parent="1">
          <mxGeometry x="621" y="20" width="150" height="1510" as="geometry" />
        </mxCell>
        <mxCell id="I8DWgWoUEpo2xdy1KnTZ-4" value="Admin Module" style="shape=umlLifeline;perimeter=lifelinePerimeter;whiteSpace=wrap;container=1;dropTarget=0;collapsible=0;recursiveResize=0;outlineConnect=0;portConstraint=eastwest;newEdgeStyle={&quot;edgeStyle&quot;:&quot;elbowEdgeStyle&quot;,&quot;elbow&quot;:&quot;vertical&quot;,&quot;curved&quot;:0,&quot;rounded&quot;:0};size=65;" vertex="1" parent="1">
          <mxGeometry x="821" y="20" width="150" height="1510" as="geometry" />
        </mxCell>
        <mxCell id="I8DWgWoUEpo2xdy1KnTZ-5" value="Menu File" style="shape=umlLifeline;perimeter=lifelinePerimeter;whiteSpace=wrap;container=1;dropTarget=0;collapsible=0;recursiveResize=0;outlineConnect=0;portConstraint=eastwest;newEdgeStyle={&quot;edgeStyle&quot;:&quot;elbowEdgeStyle&quot;,&quot;elbow&quot;:&quot;vertical&quot;,&quot;curved&quot;:0,&quot;rounded&quot;:0};size=65;" vertex="1" parent="1">
          <mxGeometry x="1034" y="20" width="150" height="1510" as="geometry" />
        </mxCell>
        <mxCell id="I8DWgWoUEpo2xdy1KnTZ-6" value="Bill File" style="shape=umlLifeline;perimeter=lifelinePerimeter;whiteSpace=wrap;container=1;dropTarget=0;collapsible=0;recursiveResize=0;outlineConnect=0;portConstraint=eastwest;newEdgeStyle={&quot;edgeStyle&quot;:&quot;elbowEdgeStyle&quot;,&quot;elbow&quot;:&quot;vertical&quot;,&quot;curved&quot;:0,&quot;rounded&quot;:0};size=65;" vertex="1" parent="1">
          <mxGeometry x="1234" y="20" width="150" height="1510" as="geometry" />
        </mxCell>
        <mxCell id="I8DWgWoUEpo2xdy1KnTZ-7" value="Discount File" style="shape=umlLifeline;perimeter=lifelinePerimeter;whiteSpace=wrap;container=1;dropTarget=0;collapsible=0;recursiveResize=0;outlineConnect=0;portConstraint=eastwest;newEdgeStyle={&quot;edgeStyle&quot;:&quot;elbowEdgeStyle&quot;,&quot;elbow&quot;:&quot;vertical&quot;,&quot;curved&quot;:0,&quot;rounded&quot;:0};size=65;" vertex="1" parent="1">
          <mxGeometry x="1434" y="20" width="150" height="1510" as="geometry" />
        </mxCell>
        <mxCell id="I8DWgWoUEpo2xdy1KnTZ-8" value="alt" style="shape=umlFrame;dashed=1;pointerEvents=0;dropTarget=0;strokeColor=#B3B3B3;height=20;width=30" vertex="1" parent="1">
          <mxGeometry x="84" y="199" width="1436" height="1236" as="geometry" />
        </mxCell>
        <mxCell id="I8DWgWoUEpo2xdy1KnTZ-9" value="[User selects Customer]" style="text;strokeColor=none;fillColor=none;align=center;verticalAlign=middle;whiteSpace=wrap;" vertex="1" parent="I8DWgWoUEpo2xdy1KnTZ-8">
          <mxGeometry x="30" width="1406" height="20" as="geometry" />
        </mxCell>
        <mxCell id="I8DWgWoUEpo2xdy1KnTZ-10" value="[User selects Admin]" style="shape=line;dashed=1;whiteSpace=wrap;verticalAlign=top;labelPosition=center;verticalLabelPosition=middle;align=center;strokeColor=#B3B3B3;" vertex="1" parent="I8DWgWoUEpo2xdy1KnTZ-8">
          <mxGeometry y="727" width="1436" height="4" as="geometry" />
        </mxCell>
        <mxCell id="I8DWgWoUEpo2xdy1KnTZ-11" value="Start Application" style="verticalAlign=bottom;edgeStyle=elbowEdgeStyle;elbow=vertical;curved=0;rounded=0;endArrow=block;" edge="1" parent="1" source="I8DWgWoUEpo2xdy1KnTZ-1" target="I8DWgWoUEpo2xdy1KnTZ-2">
          <mxGeometry relative="1" as="geometry">
            <Array as="points">
              <mxPoint x="276" y="127" />
            </Array>
          </mxGeometry>
        </mxCell>
        <mxCell id="I8DWgWoUEpo2xdy1KnTZ-12" value="Display &quot;Select Role: Customer/Admin&quot;" style="verticalAlign=bottom;edgeStyle=elbowEdgeStyle;elbow=vertical;curved=0;rounded=0;endArrow=block;" edge="1" parent="1" source="I8DWgWoUEpo2xdy1KnTZ-2" target="I8DWgWoUEpo2xdy1KnTZ-1">
          <mxGeometry relative="1" as="geometry">
            <Array as="points">
              <mxPoint x="279" y="179" />
            </Array>
          </mxGeometry>
        </mxCell>
        <mxCell id="I8DWgWoUEpo2xdy1KnTZ-13" value="Select &quot;Customer&quot;" style="verticalAlign=bottom;edgeStyle=elbowEdgeStyle;elbow=vertical;curved=0;rounded=0;endArrow=block;" edge="1" parent="1" source="I8DWgWoUEpo2xdy1KnTZ-1" target="I8DWgWoUEpo2xdy1KnTZ-2">
          <mxGeometry relative="1" as="geometry">
            <Array as="points">
              <mxPoint x="276" y="277" />
            </Array>
          </mxGeometry>
        </mxCell>
        <mxCell id="I8DWgWoUEpo2xdy1KnTZ-14" value="Redirect to Customer Flow" style="verticalAlign=bottom;edgeStyle=elbowEdgeStyle;elbow=vertical;curved=0;rounded=0;endArrow=block;" edge="1" parent="1" source="I8DWgWoUEpo2xdy1KnTZ-2" target="I8DWgWoUEpo2xdy1KnTZ-3">
          <mxGeometry relative="1" as="geometry">
            <Array as="points">
              <mxPoint x="576" y="329" />
            </Array>
          </mxGeometry>
        </mxCell>
        <mxCell id="I8DWgWoUEpo2xdy1KnTZ-15" value="Load Menu" style="verticalAlign=bottom;edgeStyle=elbowEdgeStyle;elbow=vertical;curved=0;rounded=0;endArrow=block;" edge="1" parent="1" source="I8DWgWoUEpo2xdy1KnTZ-3" target="I8DWgWoUEpo2xdy1KnTZ-5">
          <mxGeometry relative="1" as="geometry">
            <Array as="points">
              <mxPoint x="911" y="381" />
            </Array>
          </mxGeometry>
        </mxCell>
        <mxCell id="I8DWgWoUEpo2xdy1KnTZ-16" value="Return Menu Items" style="verticalAlign=bottom;edgeStyle=elbowEdgeStyle;elbow=vertical;curved=0;rounded=0;dashed=1;dashPattern=2 3;endArrow=block;" edge="1" parent="1" source="I8DWgWoUEpo2xdy1KnTZ-5" target="I8DWgWoUEpo2xdy1KnTZ-3">
          <mxGeometry relative="1" as="geometry">
            <Array as="points">
              <mxPoint x="914" y="433" />
            </Array>
          </mxGeometry>
        </mxCell>
        <mxCell id="I8DWgWoUEpo2xdy1KnTZ-17" value="Display Menu" style="verticalAlign=bottom;edgeStyle=elbowEdgeStyle;elbow=vertical;curved=0;rounded=0;endArrow=block;" edge="1" parent="1" source="I8DWgWoUEpo2xdy1KnTZ-3" target="I8DWgWoUEpo2xdy1KnTZ-1">
          <mxGeometry relative="1" as="geometry">
            <Array as="points">
              <mxPoint x="407" y="485" />
            </Array>
          </mxGeometry>
        </mxCell>
        <mxCell id="I8DWgWoUEpo2xdy1KnTZ-18" value="Place Order" style="verticalAlign=bottom;edgeStyle=elbowEdgeStyle;elbow=vertical;curved=0;rounded=0;endArrow=block;" edge="1" parent="1" source="I8DWgWoUEpo2xdy1KnTZ-1" target="I8DWgWoUEpo2xdy1KnTZ-3">
          <mxGeometry relative="1" as="geometry">
            <Array as="points">
              <mxPoint x="404" y="537" />
            </Array>
          </mxGeometry>
        </mxCell>
        <mxCell id="I8DWgWoUEpo2xdy1KnTZ-19" value="Ask for available coupons" style="verticalAlign=bottom;edgeStyle=elbowEdgeStyle;elbow=vertical;curved=0;rounded=0;endArrow=block;" edge="1" parent="1" source="I8DWgWoUEpo2xdy1KnTZ-3" target="I8DWgWoUEpo2xdy1KnTZ-7">
          <mxGeometry relative="1" as="geometry">
            <Array as="points">
              <mxPoint x="1111" y="589" />
            </Array>
          </mxGeometry>
        </mxCell>
        <mxCell id="I8DWgWoUEpo2xdy1KnTZ-20" value="Return coupon details" style="verticalAlign=bottom;edgeStyle=elbowEdgeStyle;elbow=vertical;curved=0;rounded=0;dashed=1;dashPattern=2 3;endArrow=block;" edge="1" parent="1" source="I8DWgWoUEpo2xdy1KnTZ-7" target="I8DWgWoUEpo2xdy1KnTZ-3">
          <mxGeometry relative="1" as="geometry">
            <Array as="points">
              <mxPoint x="1114" y="641" />
            </Array>
          </mxGeometry>
        </mxCell>
        <mxCell id="I8DWgWoUEpo2xdy1KnTZ-21" value="Ask &quot;Proceed with Bill or Apply Coupon?&quot;" style="verticalAlign=bottom;edgeStyle=elbowEdgeStyle;elbow=vertical;curved=0;rounded=0;endArrow=block;" edge="1" parent="1" source="I8DWgWoUEpo2xdy1KnTZ-3" target="I8DWgWoUEpo2xdy1KnTZ-1">
          <mxGeometry relative="1" as="geometry">
            <Array as="points">
              <mxPoint x="407" y="693" />
            </Array>
          </mxGeometry>
        </mxCell>
        <mxCell id="I8DWgWoUEpo2xdy1KnTZ-22" value="Choose option" style="verticalAlign=bottom;edgeStyle=elbowEdgeStyle;elbow=vertical;curved=0;rounded=0;endArrow=block;" edge="1" parent="1" source="I8DWgWoUEpo2xdy1KnTZ-1" target="I8DWgWoUEpo2xdy1KnTZ-3">
          <mxGeometry relative="1" as="geometry">
            <Array as="points">
              <mxPoint x="404" y="745" />
            </Array>
          </mxGeometry>
        </mxCell>
        <mxCell id="I8DWgWoUEpo2xdy1KnTZ-23" value="Generate Bill (Bill1, Bill2, ...)" style="verticalAlign=bottom;edgeStyle=elbowEdgeStyle;elbow=vertical;curved=0;rounded=0;endArrow=block;" edge="1" parent="1" source="I8DWgWoUEpo2xdy1KnTZ-3" target="I8DWgWoUEpo2xdy1KnTZ-6">
          <mxGeometry relative="1" as="geometry">
            <Array as="points">
              <mxPoint x="1011" y="797" />
            </Array>
          </mxGeometry>
        </mxCell>
        <mxCell id="I8DWgWoUEpo2xdy1KnTZ-24" value="Bill saved" style="verticalAlign=bottom;edgeStyle=elbowEdgeStyle;elbow=vertical;curved=0;rounded=0;dashed=1;dashPattern=2 3;endArrow=block;" edge="1" parent="1" source="I8DWgWoUEpo2xdy1KnTZ-6" target="I8DWgWoUEpo2xdy1KnTZ-3">
          <mxGeometry relative="1" as="geometry">
            <Array as="points">
              <mxPoint x="1014" y="849" />
            </Array>
          </mxGeometry>
        </mxCell>
        <mxCell id="I8DWgWoUEpo2xdy1KnTZ-25" value="Display final bill and save confirmation" style="verticalAlign=bottom;edgeStyle=elbowEdgeStyle;elbow=vertical;curved=0;rounded=0;endArrow=block;" edge="1" parent="1" source="I8DWgWoUEpo2xdy1KnTZ-3" target="I8DWgWoUEpo2xdy1KnTZ-1">
          <mxGeometry relative="1" as="geometry">
            <Array as="points">
              <mxPoint x="407" y="901" />
            </Array>
          </mxGeometry>
        </mxCell>
        <mxCell id="I8DWgWoUEpo2xdy1KnTZ-26" value="Select &quot;Admin&quot;" style="verticalAlign=bottom;edgeStyle=elbowEdgeStyle;elbow=vertical;curved=0;rounded=0;endArrow=block;" edge="1" parent="1" source="I8DWgWoUEpo2xdy1KnTZ-1" target="I8DWgWoUEpo2xdy1KnTZ-2">
          <mxGeometry relative="1" as="geometry">
            <Array as="points">
              <mxPoint x="276" y="999" />
            </Array>
          </mxGeometry>
        </mxCell>
        <mxCell id="I8DWgWoUEpo2xdy1KnTZ-27" value="Redirect to Admin Flow" style="verticalAlign=bottom;edgeStyle=elbowEdgeStyle;elbow=vertical;curved=0;rounded=0;endArrow=block;" edge="1" parent="1" source="I8DWgWoUEpo2xdy1KnTZ-2" target="I8DWgWoUEpo2xdy1KnTZ-4">
          <mxGeometry relative="1" as="geometry">
            <Array as="points">
              <mxPoint x="676" y="1051" />
            </Array>
          </mxGeometry>
        </mxCell>
        <mxCell id="I8DWgWoUEpo2xdy1KnTZ-28" value="Load Current Menu" style="verticalAlign=bottom;edgeStyle=elbowEdgeStyle;elbow=vertical;curved=0;rounded=0;endArrow=block;" edge="1" parent="1" source="I8DWgWoUEpo2xdy1KnTZ-4" target="I8DWgWoUEpo2xdy1KnTZ-5">
          <mxGeometry relative="1" as="geometry">
            <Array as="points">
              <mxPoint x="1011" y="1103" />
            </Array>
          </mxGeometry>
        </mxCell>
        <mxCell id="I8DWgWoUEpo2xdy1KnTZ-29" value="Return Menu Items" style="verticalAlign=bottom;edgeStyle=elbowEdgeStyle;elbow=vertical;curved=0;rounded=0;dashed=1;dashPattern=2 3;endArrow=block;" edge="1" parent="1" source="I8DWgWoUEpo2xdy1KnTZ-5" target="I8DWgWoUEpo2xdy1KnTZ-4">
          <mxGeometry relative="1" as="geometry">
            <Array as="points">
              <mxPoint x="1014" y="1155" />
            </Array>
          </mxGeometry>
        </mxCell>
        <mxCell id="I8DWgWoUEpo2xdy1KnTZ-30" value="Display Menu Management Options" style="verticalAlign=bottom;edgeStyle=elbowEdgeStyle;elbow=vertical;curved=0;rounded=0;endArrow=block;" edge="1" parent="1" source="I8DWgWoUEpo2xdy1KnTZ-4" target="I8DWgWoUEpo2xdy1KnTZ-1">
          <mxGeometry relative="1" as="geometry">
            <Array as="points">
              <mxPoint x="507" y="1207" />
            </Array>
          </mxGeometry>
        </mxCell>
        <mxCell id="I8DWgWoUEpo2xdy1KnTZ-31" value="Add/Update/Delete Item" style="verticalAlign=bottom;edgeStyle=elbowEdgeStyle;elbow=vertical;curved=0;rounded=0;endArrow=block;" edge="1" parent="1" source="I8DWgWoUEpo2xdy1KnTZ-1" target="I8DWgWoUEpo2xdy1KnTZ-4">
          <mxGeometry relative="1" as="geometry">
            <Array as="points">
              <mxPoint x="504" y="1259" />
            </Array>
          </mxGeometry>
        </mxCell>
        <mxCell id="I8DWgWoUEpo2xdy1KnTZ-32" value="Save Updated Menu" style="verticalAlign=bottom;edgeStyle=elbowEdgeStyle;elbow=vertical;curved=0;rounded=0;endArrow=block;" edge="1" parent="1" source="I8DWgWoUEpo2xdy1KnTZ-4" target="I8DWgWoUEpo2xdy1KnTZ-5">
          <mxGeometry relative="1" as="geometry">
            <Array as="points">
              <mxPoint x="1011" y="1311" />
            </Array>
          </mxGeometry>
        </mxCell>
        <mxCell id="I8DWgWoUEpo2xdy1KnTZ-33" value="Confirm Update" style="verticalAlign=bottom;edgeStyle=elbowEdgeStyle;elbow=vertical;curved=0;rounded=0;dashed=1;dashPattern=2 3;endArrow=block;" edge="1" parent="1" source="I8DWgWoUEpo2xdy1KnTZ-5" target="I8DWgWoUEpo2xdy1KnTZ-4">
          <mxGeometry relative="1" as="geometry">
            <Array as="points">
              <mxPoint x="1014" y="1363" />
            </Array>
          </mxGeometry>
        </mxCell>
        <mxCell id="I8DWgWoUEpo2xdy1KnTZ-34" value="Show &quot;Changes Saved&quot;" style="verticalAlign=bottom;edgeStyle=elbowEdgeStyle;elbow=vertical;curved=0;rounded=0;endArrow=block;" edge="1" parent="1" source="I8DWgWoUEpo2xdy1KnTZ-4" target="I8DWgWoUEpo2xdy1KnTZ-1">
          <mxGeometry relative="1" as="geometry">
            <Array as="points">
              <mxPoint x="507" y="1415" />
            </Array>
          </mxGeometry>
        </mxCell>
      </root>
    </mxGraphModel>
  </diagram>
</mxfile>
